<svg width="64" height="64" viewBox="0 0 64 64" fill="none" xmlns="http://www.w3.org/2000/svg">
<g clip-path="url(#clip0_32_1264)">
<path d="M32.0173 62.9748C49.1108 62.9748 62.964 49.1166 62.964 32.0219M32.0173 62.9748C14.9238 62.9748 1.06812 49.1105 1.06812 32.0219M32.0173 62.9748C14.9238 62.9748 1.06812 49.1166 1.06812 32.0219M32.0173 62.9748C49.1108 62.9748 62.964 49.1105 62.964 32.0219M62.964 32.0219C62.964 14.9272 49.1108 1.07031 32.0173 1.07031M62.964 32.0219C62.964 14.9333 49.1108 1.07031 32.0173 1.07031M32.0173 1.07031C14.9238 1.07031 1.06812 14.9333 1.06812 32.0219M32.0173 1.07031C14.9238 1.07031 1.06812 14.9272 1.06812 32.0219" stroke="white" stroke-miterlimit="10"/>
<path d="M32.0171 61.1095C48.0805 61.1095 61.1024 48.0864 61.1024 32.0218C61.1024 15.9572 48.0805 2.93408 32.0171 2.93408M32.0171 61.1095C15.9538 61.1095 2.93188 48.0864 2.93188 32.0218M32.0171 61.1095C15.9538 61.1095 2.93188 48.0913 2.93188 32.0218M32.0171 2.93408C15.9538 2.93408 2.93188 15.9572 2.93188 32.0218M32.0171 2.93408C15.9538 2.93408 2.93188 15.9523 2.93188 32.0218" stroke="white" stroke-miterlimit="10"/>
<path d="M33.3797 39.9604C33.3797 36.8299 33.8442 36.3898 36.7845 33.8457L37.9707 32.8705C40.7562 30.4238 42.7688 27.9297 42.7688 23.869C42.7688 18.8807 39.1117 14.97 32.7093 14.97C26.6226 14.97 22.7533 18.6881 22.7545 24.0189C22.7545 25.4818 23.0629 26.7581 23.5274 28.0796L27.087 28.7635C26.2617 27.1495 25.7973 25.633 25.7973 24.1652C25.7973 20.6922 28.1135 17.5129 32.6069 17.5129C37.043 17.5129 39.6213 20.3996 39.6213 24.0189C39.6213 27.002 38.2803 29.0085 35.8568 31.1114L33.9502 32.7193L35.8605 31.1041C38.284 29.0012 39.6249 26.9946 39.6249 24.0116C39.6249 20.3923 37.0466 17.5056 32.6105 17.5056C28.122 17.5056 25.8009 20.6849 25.8009 24.1579C25.8009 25.6208 26.2654 27.1422 27.0907 28.7562L23.531 28.0723C23.0666 26.7508 22.7582 25.4794 22.7582 24.0116C22.7582 18.6807 26.6262 14.9626 32.7129 14.9626C39.1093 14.9626 42.7725 18.8758 42.7725 23.8617C42.7725 27.9223 40.7598 30.4165 37.9743 32.8631L36.7882 33.8384C33.8478 36.3825 33.3834 36.8226 33.3834 39.9531L33.3797 39.9604Z" fill="white"/>
<path d="M33.9502 32.7193L35.8568 31.1114C38.2803 29.0085 39.6213 27.002 39.6213 24.0189C39.6213 20.3996 37.043 17.5129 32.6069 17.5129C28.1135 17.5129 25.7973 20.6922 25.7973 24.1652C25.7973 25.633 26.2617 27.1495 27.087 28.7635L23.5274 28.0796C23.0629 26.7581 22.7545 25.4818 22.7545 24.0189C22.7533 18.6881 26.6226 14.97 32.7093 14.97C39.1117 14.97 42.7688 18.8807 42.7688 23.869C42.7688 27.9297 40.7562 30.4238 37.9707 32.8705L36.7845 33.8457C33.8442 36.3898 33.3797 36.8299 33.3797 39.9604L33.3834 39.9531C33.3834 36.8226 33.8478 36.3825 36.7882 33.8384L37.9743 32.8631C40.7598 30.4165 42.7725 27.9223 42.7725 23.8617C42.7725 18.8758 39.1093 14.9626 32.7129 14.9626C26.6262 14.9626 22.7582 18.6807 22.7582 24.0116C22.7582 25.4794 23.0666 26.7508 23.531 28.0723L27.0907 28.7562C26.2654 27.1422 25.8009 25.6208 25.8009 24.1579C25.8009 20.6849 28.122 17.5056 32.6105 17.5056C37.0466 17.5056 39.6249 20.3923 39.6249 24.0116C39.6249 26.9946 38.284 29.0012 35.8605 31.1041L33.9502 32.7193ZM33.9502 32.7193C30.5979 35.506 30.3407 36.8762 30.3407 39.4692V41.3757H33.3883V39.958M29.8725 48.6157H33.9502V43.5286H29.8725V48.6157Z" stroke="white" stroke-miterlimit="10"/>
</g>
<defs>
<clipPath id="clip0_32_1264">
<rect width="64" height="64" fill="white"/>
</clipPath>
</defs>
</svg>
