<svg width="64" height="64" viewBox="0 0 64 64" fill="none" xmlns="http://www.w3.org/2000/svg">
<g clip-path="url(#clip0_58_105)">
<path d="M32.0178 63.6377C49.4771 63.6377 63.6268 49.4829 63.6268 32.0224M32.0178 63.6377C14.5585 63.6377 0.40625 49.4767 0.40625 32.0224M32.0178 63.6377C14.5585 63.6377 0.40625 49.4829 0.40625 32.0224M32.0178 63.6377C49.4771 63.6377 63.6268 49.4767 63.6268 32.0224M63.6268 32.0224C63.6268 14.5618 49.4771 0.408386 32.0178 0.408386M63.6268 32.0224C63.6268 14.5681 49.4771 0.408386 32.0178 0.408386M32.0178 0.408386C14.5585 0.408386 0.40625 14.5681 0.40625 32.0224M32.0178 0.408386C14.5585 0.408386 0.40625 14.5618 0.40625 32.0224" stroke="white" stroke-miterlimit="10"/>
<path d="M32.0173 61.7326C48.4244 61.7326 61.725 48.4309 61.725 32.0224C61.725 15.614 48.4244 2.31226 32.0173 2.31226M32.0173 61.7326C15.6101 61.7326 2.30957 48.4309 2.30957 32.0224M32.0173 61.7326C15.6101 61.7326 2.30957 48.4358 2.30957 32.0224M32.0173 2.31226C15.6101 2.31226 2.30957 15.614 2.30957 32.0224M32.0173 2.31226C15.6101 2.31226 2.30957 15.6091 2.30957 32.0224" stroke="white" stroke-miterlimit="10"/>
<mask id="mask0_58_105" style="mask-type:luminance" maskUnits="userSpaceOnUse" x="26" y="46" width="12" height="3">
<path d="M26.9048 46.481V48.0399C26.9046 48.0777 26.912 48.1152 26.9263 48.1502C26.9407 48.1852 26.9619 48.2169 26.9887 48.2437C27.0154 48.2704 27.0472 48.2916 27.0821 48.306C27.1171 48.3204 27.1546 48.3277 27.1924 48.3276H36.78C36.8178 48.3277 36.8553 48.3204 36.8902 48.306C36.9252 48.2916 36.957 48.2704 36.9837 48.2437C37.0105 48.2169 37.0316 48.1852 37.046 48.1502C37.0604 48.1152 37.0678 48.0777 37.0676 48.0399V46.481H26.9048Z" fill="white"/>
</mask>
<g mask="url(#mask0_58_105)">
<path d="M26.9084 46.3038L26.873 48.3268L37.0604 48.5047L37.0958 46.4816L26.9084 46.3038Z" fill="white"/>
</g>
<mask id="mask1_58_105" style="mask-type:luminance" maskUnits="userSpaceOnUse" x="26" y="48" width="12" height="2">
<path d="M27.3667 48.7894C27.2442 48.7894 27.1267 48.8381 27.0401 48.9247C26.9535 49.0114 26.9048 49.1289 26.9048 49.2514C26.9048 49.3739 26.9535 49.4914 27.0401 49.578C27.1267 49.6647 27.2442 49.7133 27.3667 49.7133H36.6069C36.7294 49.7133 36.8469 49.6647 36.9335 49.578C37.0202 49.4914 37.0688 49.3739 37.0688 49.2514C37.0688 49.1289 37.0202 49.0114 36.9335 48.9247C36.8469 48.8381 36.7294 48.7894 36.6069 48.7894H27.3667Z" fill="white"/>
</mask>
<g mask="url(#mask1_58_105)">
<path d="M26.9089 48.6123L26.8896 49.7128L37.0609 49.8904L37.0801 48.7898L26.9089 48.6123Z" fill="white"/>
</g>
<mask id="mask2_58_105" style="mask-type:luminance" maskUnits="userSpaceOnUse" x="26" y="50" width="12" height="2">
<path d="M27.3667 50.4355C27.2442 50.4355 27.1267 50.4842 27.0401 50.5708C26.9535 50.6575 26.9048 50.775 26.9048 50.8975C26.9048 51.02 26.9535 51.1375 27.0401 51.2241C27.1267 51.3108 27.2442 51.3594 27.3667 51.3594H36.6069C36.7294 51.3594 36.8469 51.3108 36.9335 51.2241C37.0202 51.1375 37.0688 51.02 37.0688 50.8975C37.0688 50.775 37.0202 50.6575 36.9335 50.5708C36.8469 50.4842 36.7294 50.4355 36.6069 50.4355H27.3667Z" fill="white"/>
</mask>
<g mask="url(#mask2_58_105)">
<path d="M26.9074 50.2585L26.8882 51.359L37.0594 51.5365L37.0786 50.436L26.9074 50.2585Z" fill="white"/>
</g>
<mask id="mask3_58_105" style="mask-type:luminance" maskUnits="userSpaceOnUse" x="26" y="52" width="12" height="2">
<path d="M27.3668 52.0816C27.3042 52.0784 27.2416 52.0879 27.1828 52.1096C27.124 52.1313 27.0702 52.1648 27.0247 52.2079C26.9793 52.2511 26.9431 52.303 26.9184 52.3606C26.8936 52.4182 26.8809 52.4803 26.8809 52.5429C26.8809 52.6056 26.8936 52.6676 26.9184 52.7252C26.9431 52.7828 26.9793 52.8348 27.0247 52.878C27.0702 52.9211 27.124 52.9546 27.1828 52.9763C27.2416 52.998 27.3042 53.0075 27.3668 53.0043H36.6069C36.6695 53.0075 36.7321 52.998 36.7909 52.9763C36.8497 52.9546 36.9035 52.9211 36.949 52.878C36.9944 52.8348 37.0306 52.7828 37.0554 52.7252C37.0801 52.6676 37.0929 52.6056 37.0929 52.5429C37.0929 52.4803 37.0801 52.4182 37.0554 52.3606C37.0306 52.303 36.9944 52.2511 36.949 52.2079C36.9035 52.1648 36.8497 52.1313 36.7909 52.1096C36.7321 52.0879 36.6695 52.0784 36.6069 52.0816H27.3668Z" fill="white"/>
</mask>
<g mask="url(#mask3_58_105)">
<path d="M26.9079 51.9057L26.8887 53.005L37.0599 53.1825L37.0791 52.0833L26.9079 51.9057Z" fill="white"/>
</g>
<mask id="mask4_58_105" style="mask-type:luminance" maskUnits="userSpaceOnUse" x="32" y="11" width="9" height="35">
<path d="M32.732 17.6386C32.732 17.5714 32.7519 17.5057 32.7893 17.4498C32.8266 17.3939 32.8797 17.3503 32.9418 17.3246C33.0039 17.2988 33.0723 17.2921 33.1382 17.3052C33.2042 17.3183 33.2647 17.3507 33.3123 17.3983C33.3598 17.4458 33.3922 17.5064 33.4053 17.5723C33.4184 17.6382 33.4117 17.7066 33.386 17.7687C33.3602 17.8308 33.3167 17.8839 33.2608 17.9213C33.2049 17.9586 33.1391 17.9785 33.0719 17.9785C33.0273 17.9785 32.9831 17.9697 32.9418 17.9527C32.9006 17.9356 32.8631 17.9105 32.8316 17.879C32.8 17.8474 32.7749 17.8099 32.7579 17.7687C32.7408 17.7275 32.732 17.6833 32.732 17.6386ZM38.3774 13.9642C38.3777 13.8567 38.4098 13.7517 38.4697 13.6624C38.5295 13.5731 38.6145 13.5036 38.7139 13.4625C38.8133 13.4215 38.9226 13.4108 39.028 13.4319C39.1335 13.4529 39.2303 13.5047 39.3063 13.5807C39.3823 13.6567 39.4341 13.7536 39.4552 13.859C39.4762 13.9644 39.4655 14.0737 39.4245 14.1731C39.3835 14.2725 39.3139 14.3575 39.2246 14.4174C39.1353 14.4773 39.0303 14.5093 38.9228 14.5096C38.8511 14.5098 38.7802 14.4958 38.7139 14.4684C38.6477 14.4411 38.5875 14.4009 38.5368 14.3502C38.4861 14.2995 38.446 14.2394 38.4186 14.1731C38.3913 14.1069 38.3773 14.0359 38.3774 13.9642ZM36.2694 12.4701C36.2694 12.4028 36.2894 12.3371 36.3267 12.2812C36.3641 12.2253 36.4171 12.1817 36.4793 12.156C36.5414 12.1303 36.6097 12.1236 36.6757 12.1367C36.7416 12.1498 36.8022 12.1822 36.8497 12.2297C36.8972 12.2772 36.9296 12.3378 36.9427 12.4037C36.9559 12.4697 36.9491 12.538 36.9234 12.6001C36.8977 12.6623 36.8541 12.7153 36.7982 12.7527C36.7423 12.79 36.6766 12.81 36.6093 12.81C36.5192 12.81 36.4327 12.7742 36.369 12.7104C36.3052 12.6467 36.2694 12.5602 36.2694 12.4701ZM33.2811 11.789C33.2811 11.7214 33.3011 11.6554 33.3387 11.5993C33.3762 11.5432 33.4296 11.4994 33.492 11.4737C33.5544 11.4479 33.6231 11.4412 33.6893 11.4545C33.7555 11.4677 33.8163 11.5003 33.8639 11.5482C33.9116 11.596 33.944 11.6569 33.957 11.7232C33.97 11.7894 33.9631 11.8581 33.9371 11.9204C33.9111 11.9827 33.8672 12.0359 33.8109 12.0732C33.7546 12.1106 33.6885 12.1304 33.621 12.1301C33.5763 12.1301 33.532 12.1213 33.4906 12.1041C33.4493 12.087 33.4118 12.0618 33.3802 12.0301C33.3486 11.9984 33.3236 11.9608 33.3066 11.9194C33.2896 11.878 33.2809 11.8337 33.2811 11.789ZM32.8727 11.789C32.8725 11.9518 32.9256 12.1103 33.0238 12.2402C33.1221 12.3701 33.2601 12.4644 33.4168 12.5087V15.5468L35.0442 17.1829V22.3589L34.3656 23.035V21.3628L33.2774 20.2746V18.3583C33.4508 18.309 33.6005 18.1987 33.699 18.0477C33.7974 17.8967 33.838 17.7151 33.8131 17.5366C33.7882 17.358 33.6996 17.1945 33.5636 17.0761C33.4276 16.9578 33.2534 16.8926 33.0732 16.8926C32.8929 16.8926 32.7187 16.9578 32.5827 17.0761C32.4467 17.1945 32.3581 17.358 32.3332 17.5366C32.3083 17.7151 32.3489 17.8967 32.4473 18.0477C32.5458 18.1987 32.6955 18.309 32.869 18.3583V20.4439L33.9585 21.5322V23.4434L32.2563 25.1443V45.9381H32.8017V25.3697L37.1597 21.0117V16.1183L38.3762 14.9018C38.6051 15.037 38.8755 15.0841 39.1366 15.0342C39.3977 14.9843 39.6317 14.8408 39.7946 14.6307C39.9575 14.4206 40.0382 14.1583 40.0214 13.8929C40.0047 13.6276 39.8918 13.3775 39.7038 13.1895C39.5158 13.0015 39.2657 12.8885 39.0003 12.8718C38.735 12.8551 38.4727 12.9357 38.2625 13.0986C38.0524 13.2615 37.909 13.4955 37.8591 13.7566C37.8091 14.0178 37.8562 14.2882 37.9914 14.5171L36.6156 15.8867V20.7938L35.4588 21.9493V17.0111L34.9147 16.4657V14.4585L36.2507 13.1213C36.3507 13.1766 36.462 13.2082 36.5762 13.2137C36.6903 13.2193 36.8041 13.1986 36.909 13.1532C37.0139 13.1079 37.1069 13.0391 37.181 12.9521C37.2551 12.8651 37.3083 12.7623 37.3364 12.6516C37.3646 12.5409 37.367 12.4252 37.3434 12.3134C37.3198 12.2016 37.2709 12.0967 37.2005 12.0068C37.13 11.9168 37.0398 11.8443 36.9369 11.7946C36.834 11.745 36.7211 11.7196 36.6069 11.7205C36.4087 11.7205 36.2187 11.7992 36.0786 11.9393C35.9385 12.0794 35.8598 12.2694 35.8598 12.4676C35.86 12.5954 35.893 12.721 35.9556 12.8324L34.4988 14.288V16.0623L33.819 15.3824V12.5074C33.9525 12.4692 34.0727 12.3946 34.1661 12.2919C34.2596 12.1892 34.3225 12.0625 34.348 11.926C34.3734 11.7895 34.3603 11.6486 34.3101 11.5191C34.26 11.3897 34.1747 11.2768 34.0639 11.1931C33.9531 11.1094 33.8212 11.0582 33.683 11.0453C33.5447 11.0324 33.4056 11.0583 33.2813 11.12C33.1569 11.1818 33.0522 11.277 32.9789 11.3949C32.9057 11.5128 32.8667 11.6489 32.8665 11.7877" fill="white"/>
</mask>
<g mask="url(#mask4_58_105)">
<path d="M32.2578 10.9049L31.6465 45.9265L40.0088 46.0725L40.6201 11.0509L32.2578 10.9049Z" fill="white"/>
</g>
<mask id="mask5_58_105" style="mask-type:luminance" maskUnits="userSpaceOnUse" x="20" y="11" width="13" height="35">
<path d="M29.4677 20.9034C29.4677 20.8361 29.4876 20.7704 29.525 20.7145C29.5623 20.6586 29.6154 20.615 29.6775 20.5893C29.7396 20.5636 29.808 20.5569 29.8739 20.57C29.9398 20.5831 30.0004 20.6155 30.0479 20.663C30.0955 20.7105 30.1279 20.7711 30.141 20.837C30.1541 20.903 30.1474 20.9713 30.1216 21.0334C30.0959 21.0956 30.0523 21.1486 29.9964 21.186C29.9405 21.2234 29.8748 21.2433 29.8076 21.2433C29.7175 21.243 29.6313 21.207 29.5676 21.1434C29.5039 21.0797 29.468 20.9934 29.4677 20.9034ZM31.1 19.271C31.1003 19.2038 31.1205 19.1381 31.158 19.0824C31.1956 19.0266 31.2488 18.9832 31.311 18.9577C31.3732 18.9322 31.4416 18.9257 31.5075 18.9391C31.5734 18.9525 31.6338 18.985 31.6812 19.0328C31.7286 19.0805 31.7607 19.1412 31.7736 19.2071C31.7865 19.2731 31.7795 19.3415 31.7535 19.4035C31.7276 19.4655 31.6838 19.5184 31.6278 19.5556C31.5717 19.5927 31.5059 19.6124 31.4387 19.6122C31.3941 19.612 31.3499 19.603 31.3087 19.5858C31.2675 19.5686 31.2302 19.5434 31.1987 19.5117C31.1673 19.48 31.1424 19.4425 31.1254 19.4012C31.1085 19.3599 31.0999 19.3156 31.1 19.271ZM21.1676 16.9575C21.1678 16.8904 21.188 16.8248 21.2255 16.769C21.263 16.7133 21.3162 16.6699 21.3783 16.6444C21.4404 16.6188 21.5087 16.6123 21.5746 16.6255C21.6404 16.6388 21.7009 16.6713 21.7483 16.7189C21.7957 16.7664 21.828 16.827 21.841 16.8929C21.854 16.9588 21.8472 17.0271 21.8214 17.0891C21.7957 17.1512 21.7521 17.2042 21.6962 17.2415C21.6404 17.2788 21.5747 17.2987 21.5075 17.2987C21.4627 17.2989 21.4183 17.2901 21.3769 17.273C21.3355 17.2559 21.2979 17.2308 21.2663 17.1991C21.2347 17.1673 21.2097 17.1296 21.1928 17.0882C21.1758 17.0467 21.1673 17.0023 21.1676 16.9575ZM23.2756 14.918C23.2756 14.8104 23.3075 14.7052 23.3673 14.6157C23.4271 14.5262 23.5121 14.4565 23.6115 14.4153C23.7109 14.3741 23.8203 14.3633 23.9259 14.3843C24.0314 14.4053 24.1284 14.4571 24.2045 14.5332C24.2806 14.6093 24.3324 14.7063 24.3534 14.8118C24.3744 14.9174 24.3636 15.0268 24.3224 15.1262C24.2812 15.2256 24.2115 15.3106 24.122 15.3704C24.0325 15.4302 23.9273 15.4621 23.8197 15.4621C23.6754 15.4621 23.537 15.4048 23.435 15.3027C23.3329 15.2007 23.2756 15.0623 23.2756 14.918ZM26.7458 12.6045C26.7458 12.5373 26.7657 12.4716 26.8031 12.4157C26.8404 12.3598 26.8935 12.3162 26.9556 12.2905C27.0177 12.2648 27.0861 12.258 27.152 12.2711C27.218 12.2843 27.2785 12.3166 27.3261 12.3642C27.3736 12.4117 27.406 12.4723 27.4191 12.5382C27.4322 12.6042 27.4255 12.6725 27.3998 12.7346C27.374 12.7967 27.3305 12.8498 27.2746 12.8872C27.2187 12.9245 27.1529 12.9445 27.0857 12.9445C27.041 12.9446 26.9968 12.9359 26.9554 12.9189C26.9141 12.9019 26.8766 12.8769 26.845 12.8453C26.8134 12.8137 26.7884 12.7761 26.7713 12.7348C26.7543 12.6935 26.7456 12.6492 26.7458 12.6045ZM30.0081 11.7877C30.0083 11.7205 30.0284 11.6549 30.0659 11.5992C30.1034 11.5435 30.1566 11.5001 30.2188 11.4746C30.2809 11.449 30.3492 11.4425 30.4151 11.4557C30.4809 11.469 30.5414 11.5015 30.5888 11.549C30.6362 11.5966 30.6684 11.6572 30.6815 11.7231C30.6945 11.789 30.6877 11.8573 30.6619 11.9193C30.6361 11.9814 30.5926 12.0344 30.5367 12.0717C30.4808 12.109 30.4152 12.1289 30.348 12.1289C30.3032 12.1289 30.2589 12.1201 30.2176 12.1029C30.1763 12.0857 30.1388 12.0606 30.1072 12.0289C30.0756 11.9972 30.0506 11.9596 30.0336 11.9182C30.0166 11.8768 30.0079 11.8325 30.0081 11.7877ZM29.5996 11.7877C29.5995 11.9506 29.6526 12.1091 29.7508 12.239C29.849 12.3689 29.987 12.4632 30.1438 12.5074V17.0111L28.9186 18.2338V16.4657L27.2862 14.8333V13.323C27.4597 13.2738 27.6096 13.1636 27.7082 13.0126C27.8068 12.8616 27.8474 12.68 27.8226 12.5014C27.7978 12.3228 27.7092 12.1592 27.5732 12.0407C27.4372 11.9223 27.2629 11.8571 27.0826 11.8571C26.9023 11.8571 26.728 11.9223 26.592 12.0407C26.456 12.1592 26.3674 12.3228 26.3426 12.5014C26.3178 12.68 26.3585 12.8616 26.457 13.0126C26.5556 13.1636 26.7055 13.2738 26.879 13.323V15.0014L28.5102 16.6325V18.641L27.3584 19.7977V18.0707L24.7573 15.4696C24.8925 15.2407 24.9396 14.9703 24.8897 14.7092C24.8398 14.448 24.6963 14.2141 24.4862 14.0512C24.2761 13.8883 24.0138 13.8076 23.7484 13.8243C23.4831 13.8411 23.233 13.954 23.045 14.142C22.857 14.33 22.744 14.5801 22.7273 14.8455C22.7106 15.1108 22.7912 15.3731 22.9541 15.5832C23.117 15.7934 23.351 15.9368 23.6121 15.9867C23.8733 16.0366 24.1437 15.9896 24.3726 15.8543L26.8143 18.2948V23.6078L24.573 21.3666V19.7354L22.1637 17.3224C22.2265 17.2111 22.2591 17.0853 22.2583 16.9575C22.2583 16.8098 22.2145 16.6653 22.1324 16.5425C22.0503 16.4196 21.9336 16.3239 21.7971 16.2673C21.6606 16.2108 21.5104 16.196 21.3655 16.2248C21.2206 16.2536 21.0875 16.3248 20.983 16.4293C20.8785 16.5337 20.8073 16.6669 20.7785 16.8118C20.7497 16.9567 20.7645 17.1069 20.821 17.2434C20.8776 17.3799 20.9733 17.4966 21.0962 17.5787C21.219 17.6608 21.3635 17.7046 21.5112 17.7046C21.6387 17.7046 21.764 17.6716 21.8748 17.6087L24.1646 19.8973V21.5297L26.8168 24.1831V25.3672L31.1747 29.7252V45.9368H31.7189V29.501L31.1 28.8872V26.2612L30.0081 25.1729V24.254L31.6392 22.6204V19.9907C31.8127 19.9415 31.9626 19.8313 32.0612 19.6803C32.1597 19.5293 32.2004 19.3477 32.1756 19.1691C32.1508 18.9905 32.0622 18.8269 31.9262 18.7084C31.7902 18.59 31.6159 18.5248 31.4356 18.5248C31.2553 18.5248 31.081 18.59 30.945 18.7084C30.809 18.8269 30.7204 18.9905 30.6956 19.1691C30.6708 19.3477 30.7115 19.5293 30.81 19.6803C30.9086 19.8313 31.0585 19.9415 31.232 19.9907V22.4523L30.0081 23.6763V21.6231C30.1815 21.5738 30.3312 21.4635 30.4297 21.3124C30.5281 21.1614 30.5687 20.9799 30.5438 20.8013C30.5189 20.6228 30.4303 20.4592 30.2943 20.3409C30.1583 20.2225 29.9841 20.1573 29.8038 20.1573C29.6236 20.1573 29.4494 20.2225 29.3134 20.3409C29.1774 20.4592 29.0888 20.6228 29.0639 20.8013C29.039 20.9799 29.0796 21.1614 29.178 21.3124C29.2765 21.4635 29.4262 21.5738 29.5996 21.6231V25.3423L30.6879 26.4305V28.4775L27.3547 25.1443V20.3754L30.5559 17.1829V12.5074C30.6894 12.4692 30.8096 12.3946 30.9031 12.2919C30.9965 12.1892 31.0595 12.0625 31.0849 11.926C31.1103 11.7895 31.0972 11.6486 31.0471 11.5191C30.9969 11.3897 30.9116 11.2768 30.8008 11.1931C30.69 11.1094 30.5581 11.0582 30.4199 11.0453C30.2816 11.0324 30.1425 11.0583 30.0182 11.12C29.8938 11.1818 29.7891 11.277 29.7159 11.3949C29.6426 11.5128 29.6036 11.6489 29.6034 11.7877" fill="white"/>
</mask>
<g mask="url(#mask5_58_105)">
<path d="M20.7623 10.8403L20.1499 45.9254L32.1836 46.1354L32.796 11.0503L20.7623 10.8403Z" fill="white"/>
</g>
<mask id="mask6_58_105" style="mask-type:luminance" maskUnits="userSpaceOnUse" x="33" y="15" width="13" height="31">
<path d="M43.6159 30.1547C43.6162 30.0875 43.6363 30.0219 43.6738 29.9662C43.7113 29.9105 43.7645 29.8671 43.8266 29.8415C43.8888 29.816 43.9571 29.8095 44.0229 29.8227C44.0888 29.836 44.1492 29.8684 44.1966 29.916C44.2441 29.9636 44.2763 30.0242 44.2893 30.0901C44.3023 30.156 44.2955 30.2243 44.2698 30.2863C44.244 30.3484 44.2004 30.4014 44.1446 30.4387C44.0887 30.476 44.023 30.4959 43.9558 30.4959C43.8656 30.4955 43.7791 30.4595 43.7154 30.3955C43.6517 30.3316 43.6159 30.245 43.6159 30.1547ZM34.0931 28.795C34.0929 28.7277 34.1126 28.6618 34.1499 28.6057C34.1872 28.5496 34.2402 28.5058 34.3024 28.48C34.3646 28.4541 34.433 28.4472 34.4991 28.4603C34.5651 28.4734 34.6258 28.5058 34.6734 28.5534C34.721 28.601 34.7534 28.6617 34.7665 28.7278C34.7796 28.7938 34.7727 28.8623 34.7469 28.9244C34.721 28.9866 34.6772 29.0397 34.6211 29.0769C34.565 29.1142 34.4991 29.1339 34.4318 29.1337C34.342 29.1337 34.2558 29.098 34.1923 29.0345C34.1288 28.971 34.0931 28.8848 34.0931 28.795ZM34.0931 26.6173C34.0931 26.55 34.1131 26.4842 34.1505 26.4283C34.1879 26.3724 34.2411 26.3288 34.3033 26.3031C34.3654 26.2774 34.4339 26.2708 34.4998 26.284C34.5658 26.2972 34.6264 26.3297 34.6739 26.3774C34.7213 26.425 34.7536 26.4857 34.7666 26.5517C34.7796 26.6177 34.7727 26.6861 34.7467 26.7482C34.7208 26.8103 34.6771 26.8633 34.621 26.9005C34.5649 26.9377 34.4991 26.9574 34.4318 26.9572C34.3419 26.9569 34.2557 26.9209 34.1922 26.8572C34.1288 26.7935 34.0931 26.7072 34.0931 26.6173ZM44.7004 25.2576C44.7004 25.1904 44.7203 25.1247 44.7576 25.0689C44.7949 25.013 44.848 24.9694 44.91 24.9437C44.972 24.9179 45.0403 24.9111 45.1062 24.9241C45.1721 24.9371 45.2327 24.9694 45.2803 25.0168C45.3279 25.0642 45.3603 25.1246 45.3736 25.1905C45.3869 25.2564 45.3803 25.3247 45.3548 25.3868C45.3292 25.4489 45.2859 25.5021 45.2301 25.5396C45.1744 25.5771 45.1088 25.5973 45.0416 25.5975C44.9513 25.5975 44.8648 25.5617 44.8008 25.498C44.7369 25.4343 44.7008 25.3478 44.7004 25.2576ZM43.276 20.4949C43.276 20.3873 43.3079 20.2821 43.3677 20.1926C43.4275 20.1032 43.5125 20.0334 43.6119 19.9922C43.7113 19.951 43.8207 19.9403 43.9263 19.9613C44.0318 19.9823 44.1288 20.0341 44.2049 20.1102C44.281 20.1863 44.3328 20.2832 44.3538 20.3888C44.3748 20.4943 44.364 20.6037 44.3228 20.7032C44.2817 20.8026 44.2119 20.8876 44.1224 20.9474C44.0329 21.0071 43.9277 21.0391 43.8201 21.0391C43.6758 21.0391 43.5374 20.9817 43.4354 20.8797C43.3333 20.7776 43.276 20.6392 43.276 20.4949ZM41.5751 16.4146C41.5747 16.347 41.5943 16.2807 41.6315 16.2243C41.6688 16.1678 41.7219 16.1237 41.7843 16.0975C41.8467 16.0714 41.9154 16.0643 41.9818 16.0773C42.0482 16.0903 42.1092 16.1227 42.1571 16.1705C42.205 16.2182 42.2377 16.2791 42.2509 16.3454C42.2641 16.4117 42.2573 16.4805 42.2314 16.543C42.2054 16.6054 42.1615 16.6588 42.1052 16.6962C42.0489 16.7337 41.9827 16.7535 41.9151 16.7533C41.8252 16.753 41.7392 16.7172 41.6755 16.6538C41.6119 16.5904 41.5758 16.5045 41.5751 16.4146ZM41.1667 16.4146C41.1667 16.5421 41.1998 16.6673 41.2626 16.7782L39.9428 18.098V20.8187L36.678 24.0847V30.5183L35.9982 31.1981V27.891L35.0867 26.9796C35.1747 26.8223 35.2029 26.6385 35.166 26.4621C35.1291 26.2857 35.0297 26.1285 34.8861 26.0196C34.7425 25.9107 34.5644 25.8574 34.3845 25.8695C34.2047 25.8816 34.0353 25.9583 33.9076 26.0855C33.7799 26.2127 33.7024 26.3817 33.6896 26.5615C33.6767 26.7413 33.7292 26.9196 33.8375 27.0637C33.9458 27.2078 34.1025 27.3079 34.2788 27.3455C34.455 27.3831 34.639 27.3558 34.7966 27.2685L35.5898 28.0604V29.6591L35.0917 29.1611C35.1715 29.0179 35.2019 28.8525 35.1784 28.6903C35.1549 28.5282 35.0788 28.3782 34.9617 28.2636C34.8445 28.149 34.693 28.076 34.5303 28.056C34.3677 28.036 34.203 28.07 34.0616 28.1528C33.9202 28.2356 33.8099 28.3626 33.7478 28.5143C33.6857 28.6659 33.6751 28.8337 33.7178 28.992C33.7604 29.1502 33.8539 29.29 33.9838 29.3899C34.1138 29.4897 34.2729 29.5441 34.4368 29.5446C34.5646 29.5454 34.6903 29.5127 34.8016 29.45L35.5948 30.2431V31.6128L33.3535 33.854V45.9393H33.8989V34.0769L34.3509 33.6249H36.9756L38.5993 31.9913H42.4081L43.5923 30.8072C43.7031 30.8702 43.8284 30.9032 43.9558 30.903C44.1036 30.903 44.248 30.8592 44.3709 30.7771C44.4938 30.695 44.5895 30.5784 44.6461 30.4418C44.7026 30.3053 44.7174 30.1551 44.6886 30.0102C44.6598 29.8653 44.5886 29.7322 44.4841 29.6277C44.3796 29.5232 44.2465 29.452 44.1016 29.4232C43.9567 29.3944 43.8065 29.4092 43.67 29.4657C43.5334 29.5223 43.4168 29.618 43.3347 29.7409C43.2526 29.8637 43.2088 30.0082 43.2088 30.1559C43.2086 30.2836 43.2412 30.4093 43.3034 30.5208L42.2388 31.5854H38.4299L36.7976 33.2177H34.7493L38.6939 29.2719H41.3199L44.6818 25.91C44.7931 25.9728 44.9188 26.0054 45.0466 26.0047C45.2105 26.0042 45.3696 25.9498 45.4995 25.8499C45.6295 25.7501 45.723 25.6103 45.7656 25.452C45.8083 25.2938 45.7977 25.126 45.7356 24.9743C45.6735 24.8227 45.5632 24.6957 45.4218 24.6129C45.2804 24.5301 45.1157 24.4961 44.953 24.5161C44.7904 24.5361 44.6388 24.6091 44.5217 24.7237C44.4046 24.8383 44.3284 24.9883 44.3049 25.1504C44.2814 25.3126 44.3119 25.478 44.3916 25.6212L41.1543 28.8585H39.0973L40.4134 27.5424V24.2801L43.2636 21.4313C43.4925 21.5665 43.7628 21.6136 44.024 21.5637C44.2851 21.5138 44.5191 21.3703 44.682 21.1602C44.8449 20.9501 44.9255 20.6877 44.9088 20.4224C44.8921 20.1571 44.7791 19.9069 44.5911 19.719C44.4031 19.531 44.153 19.418 43.8877 19.4013C43.6223 19.3846 43.36 19.4652 43.1499 19.6281C42.9398 19.791 42.7963 20.025 42.7464 20.2861C42.6965 20.5473 42.7436 20.8176 42.8788 21.0465L39.8743 24.056V27.3208L37.0864 30.1099V24.2577L40.3499 20.993V18.2674L41.5502 17.0671C41.6618 17.1293 41.7874 17.1619 41.9151 17.1617C42.0628 17.1617 42.2073 17.1179 42.3301 17.0358C42.453 16.9537 42.5487 16.837 42.6053 16.7005C42.6618 16.564 42.6766 16.4138 42.6478 16.2689C42.619 16.124 42.5478 15.9908 42.4433 15.8864C42.3389 15.7819 42.2057 15.7107 42.0608 15.6819C41.9159 15.6531 41.7657 15.6679 41.6292 15.7244C41.4927 15.781 41.376 15.8767 41.2939 15.9996C41.2118 16.1224 41.168 16.2669 41.168 16.4146" fill="white"/>
</mask>
<g mask="url(#mask6_58_105)">
<path d="M33.3484 15.4488L32.8164 45.9276L45.79 46.154L46.322 15.6752L33.3484 15.4488Z" fill="white"/>
</g>
<mask id="mask7_58_105" style="mask-type:luminance" maskUnits="userSpaceOnUse" x="24" y="41" width="4" height="5">
<path d="M25.113 42.6721C25.1127 42.6048 25.1325 42.5389 25.1697 42.4829C25.2069 42.4268 25.2599 42.3831 25.322 42.3571C25.3841 42.3312 25.4524 42.3243 25.5185 42.3373C25.5845 42.3503 25.6452 42.3825 25.6928 42.43C25.7405 42.4775 25.773 42.5381 25.7862 42.6041C25.7994 42.67 25.7928 42.7384 25.7671 42.8006C25.7414 42.8628 25.6978 42.916 25.6419 42.9534C25.586 42.9908 25.5202 43.0107 25.4529 43.0107C25.3631 43.0104 25.277 42.9747 25.2134 42.9113C25.1497 42.8479 25.1137 42.7619 25.113 42.6721ZM24.7046 42.6721C24.7044 42.8026 24.7384 42.9309 24.8032 43.0442C24.868 43.1575 24.9613 43.2518 25.0739 43.3178C25.1865 43.3838 25.3144 43.4191 25.4449 43.4203C25.5754 43.4215 25.704 43.3885 25.8177 43.3245L26.8823 44.3879V45.9368H27.2895V44.2198L26.1066 43.0357C26.1692 42.9248 26.2019 42.7994 26.2012 42.6721C26.2012 42.4739 26.1225 42.2839 25.9824 42.1438C25.8423 42.0037 25.6523 41.925 25.4542 41.925C25.256 41.925 25.066 42.0037 24.9259 42.1438C24.7858 42.2839 24.7071 42.4739 24.7071 42.6721" fill="white"/>
</mask>
<g mask="url(#mask7_58_105)">
<path d="M24.7056 41.878L24.6348 45.9352L27.289 45.9816L27.3598 41.9243L24.7056 41.878Z" fill="white"/>
</g>
<mask id="mask8_58_105" style="mask-type:luminance" maskUnits="userSpaceOnUse" x="26" y="38" width="4" height="8">
<path d="M27.2895 39.406C27.2895 39.3385 27.3095 39.2725 27.347 39.2164C27.3845 39.1603 27.4378 39.1166 27.5001 39.0908C27.5624 39.0649 27.631 39.0582 27.6972 39.0713C27.7634 39.0845 27.8242 39.117 27.8719 39.1647C27.9196 39.2124 27.9521 39.2732 27.9653 39.3394C27.9784 39.4056 27.9717 39.4742 27.9459 39.5365C27.92 39.5989 27.8763 39.6521 27.8202 39.6896C27.7641 39.7271 27.6981 39.7471 27.6307 39.7471C27.5402 39.7471 27.4534 39.7112 27.3894 39.6472C27.3254 39.5832 27.2895 39.4964 27.2895 39.406ZM26.8823 39.406C26.8823 39.6041 26.961 39.7941 27.1011 39.9342C27.2412 40.0743 27.4313 40.153 27.6294 40.153C27.7568 40.1526 27.882 40.1196 27.993 40.0572L29.0576 41.1218V45.9355H29.466V40.9549L28.2819 39.7708C28.3441 39.6593 28.3766 39.5337 28.3765 39.406C28.3765 39.2078 28.2978 39.0178 28.1577 38.8777C28.0176 38.7376 27.8275 38.6589 27.6294 38.6589C27.4313 38.6589 27.2412 38.7376 27.1011 38.8777C26.961 39.0178 26.8823 39.2078 26.8823 39.406Z" fill="white"/>
</mask>
<g mask="url(#mask8_58_105)">
<path d="M26.8817 38.6135L26.7539 45.935L29.4654 45.9823L29.5932 38.6608L26.8817 38.6135Z" fill="white"/>
</g>
<mask id="mask9_58_105" style="mask-type:luminance" maskUnits="userSpaceOnUse" x="35" y="32" width="8" height="14">
<path d="M41.3024 34.6446C41.3022 34.5771 41.322 34.511 41.3593 34.4547C41.3967 34.3985 41.4499 34.3546 41.5122 34.3285C41.5745 34.3025 41.6431 34.2956 41.7094 34.3086C41.7757 34.3216 41.8366 34.354 41.8844 34.4017C41.9322 34.4494 41.9649 34.5102 41.9781 34.5764C41.9914 34.6426 41.9847 34.7112 41.9589 34.7737C41.9331 34.8361 41.8894 34.8894 41.8333 34.927C41.7771 34.9645 41.7111 34.9845 41.6436 34.9845C41.5533 34.9846 41.4667 34.9488 41.4028 34.8851C41.3389 34.8214 41.3028 34.7349 41.3024 34.6446ZM38.7238 33.4207C38.7238 33.3534 38.7437 33.2877 38.781 33.2318C38.8184 33.1759 38.8715 33.1323 38.9336 33.1066C38.9957 33.0809 39.0641 33.0742 39.13 33.0873C39.1959 33.1004 39.2565 33.1328 39.304 33.1803C39.3516 33.2278 39.3839 33.2884 39.3971 33.3543C39.4102 33.4203 39.4035 33.4886 39.3777 33.5507C39.352 33.6129 39.3084 33.6659 39.2525 33.7033C39.1966 33.7406 39.1309 33.7606 39.0637 33.7606C38.9736 33.7603 38.8874 33.7243 38.8237 33.6607C38.76 33.597 38.7241 33.5107 38.7238 33.4207ZM38.3153 33.4207C38.3155 33.5833 38.3687 33.7415 38.4669 33.8712C38.5651 34.0008 38.7029 34.0949 38.8595 34.1391V34.9684L37.77 36.0566V39.3214L35.5947 41.4979V45.9368H36.0031V41.6672L38.1784 39.4907V38.4025L41.2838 35.2971C41.3949 35.3602 41.5207 35.3933 41.6486 35.393C41.7963 35.393 41.9408 35.3491 42.0636 35.2671C42.1865 35.185 42.2822 35.0683 42.3388 34.9318C42.3953 34.7953 42.4101 34.645 42.3813 34.5001C42.3525 34.3552 42.2813 34.2221 42.1768 34.1176C42.0724 34.0131 41.9392 33.942 41.7943 33.9131C41.6494 33.8843 41.4992 33.8991 41.3627 33.9557C41.2262 34.0122 41.1095 34.108 41.0274 34.2308C40.9453 34.3537 40.9015 34.4981 40.9015 34.6459C40.9013 34.7733 40.9344 34.8987 40.9974 35.0095L38.1796 37.8272V36.226L39.2691 35.1365V34.1403C39.4027 34.1022 39.5229 34.0275 39.6164 33.9247C39.7098 33.822 39.7728 33.6952 39.7982 33.5586C39.8236 33.4221 39.8104 33.2811 39.7601 33.1516C39.7098 33.0222 39.6244 32.9093 39.5135 32.8256C39.4027 32.742 39.2706 32.6909 39.1323 32.6781C38.994 32.6654 38.8549 32.6914 38.7306 32.7534C38.6062 32.8153 38.5016 32.9107 38.4285 33.0288C38.3554 33.1469 38.3166 33.283 38.3166 33.4219" fill="white"/>
</mask>
<g mask="url(#mask9_58_105)">
<path d="M35.5914 32.5538L35.3579 45.932L42.3894 46.0547L42.6229 32.6765L35.5914 32.5538Z" fill="white"/>
</g>
<mask id="mask10_58_105" style="mask-type:luminance" maskUnits="userSpaceOnUse" x="36" y="40" width="4" height="6">
<path d="M38.1731 41.5875C38.1729 41.52 38.1927 41.4539 38.23 41.3976C38.2674 41.3414 38.3206 41.2975 38.3829 41.2714C38.4452 41.2454 38.5138 41.2385 38.5801 41.2515C38.6464 41.2645 38.7073 41.2969 38.7551 41.3446C38.8029 41.3923 38.8356 41.453 38.8488 41.5193C38.8621 41.5855 38.8554 41.6541 38.8296 41.7165C38.8038 41.779 38.7601 41.8323 38.704 41.8699C38.6478 41.9074 38.5818 41.9274 38.5143 41.9274C38.424 41.9274 38.3375 41.8917 38.2735 41.828C38.2096 41.7642 38.1735 41.6778 38.1731 41.5875ZM37.7647 41.5875C37.765 41.7153 37.798 41.8409 37.8606 41.9523L36.6777 43.1365V45.9418H37.0861V43.3008L38.1495 42.2362C38.293 42.3158 38.4587 42.3459 38.6211 42.3219C38.7834 42.2979 38.9333 42.2212 39.0477 42.1035C39.162 41.9857 39.2344 41.8337 39.2537 41.6707C39.273 41.5077 39.2381 41.3429 39.1544 41.2018C39.0707 41.0607 38.9428 40.951 38.7905 40.8898C38.6383 40.8285 38.4701 40.8191 38.312 40.863C38.1539 40.9069 38.0146 41.0017 37.9157 41.1326C37.8168 41.2636 37.7637 41.4234 37.7647 41.5875Z" fill="white"/>
</mask>
<g mask="url(#mask10_58_105)">
<path d="M36.6772 40.7895L36.5874 45.9349L39.2603 45.9815L39.3501 40.8362L36.6772 40.7895Z" fill="white"/>
</g>
<mask id="mask11_58_105" style="mask-type:luminance" maskUnits="userSpaceOnUse" x="18" y="19" width="13" height="27">
<path d="M20.7602 32.3311C20.7604 32.2639 20.7806 32.1983 20.8181 32.1426C20.8556 32.0868 20.9088 32.0435 20.9709 32.0179C21.033 31.9924 21.1013 31.9858 21.1672 31.9991C21.2331 32.0124 21.2935 32.0448 21.3409 32.0924C21.3883 32.14 21.4206 32.2006 21.4336 32.2665C21.4466 32.3324 21.4398 32.4007 21.4141 32.4627C21.3883 32.5247 21.3447 32.5778 21.2888 32.6151C21.233 32.6524 21.1673 32.6723 21.1001 32.6723C21.0554 32.6723 21.0111 32.6634 20.9698 32.6463C20.9284 32.6291 20.8909 32.604 20.8593 32.5723C20.8277 32.5406 20.8027 32.5029 20.7857 32.4616C20.7687 32.4202 20.76 32.3758 20.7602 32.3311ZM29.4674 31.2428C29.4677 31.1757 29.4878 31.1101 29.5253 31.0543C29.5628 30.9986 29.616 30.9552 29.6781 30.9297C29.7403 30.9042 29.8086 30.8976 29.8744 30.9109C29.9403 30.9241 30.0007 30.9566 30.0482 31.0042C30.0956 31.0518 30.1278 31.1123 30.1408 31.1782C30.1539 31.2441 30.1471 31.3124 30.1213 31.3745C30.0955 31.4365 30.052 31.4895 29.9961 31.5268C29.9402 31.5641 29.8745 31.584 29.8074 31.584C29.7171 31.5837 29.6306 31.5476 29.5669 31.4836C29.5032 31.4197 29.4674 31.3331 29.4674 31.2428ZM27.8351 29.6105C27.8351 29.5432 27.855 29.4774 27.8924 29.4215C27.9299 29.3656 27.983 29.322 28.0452 29.2963C28.1074 29.2706 28.1758 29.264 28.2418 29.2772C28.3077 29.2904 28.3683 29.3229 28.4158 29.3706C28.4633 29.4182 28.4956 29.4789 28.5085 29.5449C28.5215 29.6109 28.5146 29.6793 28.4887 29.7414C28.4628 29.8035 28.419 29.8565 28.3629 29.8937C28.3069 29.9309 28.241 29.9506 28.1737 29.9504C28.0838 29.9501 27.9977 29.9141 27.9342 29.8504C27.8707 29.7867 27.8351 29.7004 27.8351 29.6105ZM19.1266 28.5222C19.1263 28.4546 19.1462 28.3885 19.1836 28.3322C19.221 28.2759 19.2742 28.232 19.3366 28.206C19.399 28.18 19.4677 28.1732 19.534 28.1863C19.6003 28.1994 19.6612 28.232 19.709 28.2797C19.7568 28.3275 19.7893 28.3884 19.8024 28.4547C19.8155 28.521 19.8087 28.5897 19.7827 28.6521C19.7567 28.7145 19.7128 28.7678 19.6565 28.8052C19.6002 28.8426 19.5341 28.8624 19.4665 28.8621C19.3765 28.8618 19.2902 28.8259 19.2265 28.7622C19.1628 28.6985 19.1269 28.6123 19.1266 28.5222ZM26.2014 27.9781C26.2012 27.9106 26.221 27.8445 26.2583 27.7882C26.2957 27.7319 26.3489 27.688 26.4112 27.662C26.4735 27.636 26.5421 27.6291 26.6084 27.6421C26.6747 27.6551 26.7356 27.6875 26.7834 27.7352C26.8313 27.7828 26.8639 27.8436 26.8771 27.9098C26.8904 27.9761 26.8837 28.0447 26.8579 28.1071C26.8321 28.1695 26.7884 28.2229 26.7323 28.2604C26.6762 28.298 26.6101 28.318 26.5426 28.318C26.4523 28.318 26.3658 28.2822 26.3018 28.2185C26.2379 28.1548 26.2018 28.0684 26.2014 27.9781ZM24.5691 26.3457C24.5691 26.2785 24.589 26.2129 24.6263 26.157C24.6636 26.1011 24.7166 26.0576 24.7786 26.0318C24.8407 26.006 24.909 25.9992 24.9749 26.0122C25.0408 26.0253 25.1013 26.0575 25.1489 26.1049C25.1965 26.1523 25.229 26.2128 25.2422 26.2787C25.2555 26.3445 25.2489 26.4128 25.2234 26.4749C25.1979 26.5371 25.1545 26.5903 25.0988 26.6278C25.043 26.6653 24.9774 26.6854 24.9102 26.6856C24.82 26.6856 24.7334 26.6499 24.6694 26.5862C24.6055 26.5224 24.5694 26.436 24.5691 26.3457ZM18.7879 24.031C18.7882 23.9234 18.8203 23.8183 18.8803 23.7289C18.9403 23.6396 19.0254 23.57 19.125 23.5291C19.2245 23.4881 19.3339 23.4776 19.4394 23.4988C19.5449 23.5201 19.6417 23.5721 19.7177 23.6484C19.7936 23.7247 19.8452 23.8217 19.8659 23.9273C19.8867 24.0329 19.8757 24.1423 19.8343 24.2416C19.7928 24.341 19.7229 24.4258 19.6333 24.4854C19.5437 24.545 19.4384 24.5766 19.3308 24.5764C19.2593 24.5762 19.1886 24.562 19.1227 24.5345C19.0567 24.507 18.9968 24.4668 18.9464 24.4161C18.896 24.3655 18.856 24.3054 18.8288 24.2393C18.8017 24.1733 18.7877 24.1025 18.7879 24.031ZM19.535 20.2221C19.5347 20.1546 19.5546 20.0884 19.592 20.0321C19.6294 19.9758 19.6826 19.9319 19.745 19.9059C19.8074 19.88 19.8761 19.8731 19.9424 19.8862C20.0087 19.8994 20.0696 19.9319 20.1174 19.9797C20.1652 20.0274 20.1977 20.0884 20.2108 20.1546C20.224 20.2209 20.2171 20.2896 20.1911 20.352C20.1651 20.4144 20.1212 20.4677 20.0649 20.5051C20.0086 20.5425 19.9425 20.5623 19.8749 20.5621C19.7849 20.5617 19.6986 20.5258 19.6349 20.4621C19.5712 20.3985 19.5353 20.3122 19.535 20.2221ZM19.1266 20.2221C19.1266 20.4203 19.2053 20.6103 19.3454 20.7504C19.4855 20.8905 19.6755 20.9692 19.8737 20.9692C20.0015 20.9696 20.1273 20.9365 20.2385 20.8734L22.5283 23.1594V26.845L20.2684 24.5851C20.4029 24.3569 20.4496 24.0875 20.3997 23.8274C20.3498 23.5673 20.2067 23.3343 19.9973 23.1721C19.7879 23.0099 19.5266 22.9296 19.2622 22.9463C18.9979 22.963 18.7487 23.0756 18.5614 23.2629C18.3741 23.4502 18.2616 23.6994 18.2448 23.9637C18.2281 24.228 18.3084 24.4894 18.4706 24.6988C18.6328 24.9082 18.8658 25.0513 19.1259 25.1012C19.3861 25.1511 19.6555 25.1044 19.8836 24.9698L23.5493 28.638V30.1421L21.7277 28.318H20.1874C20.1382 28.1446 20.0278 27.9949 19.8768 27.8964C19.7258 27.7979 19.5443 27.7574 19.3657 27.7823C19.1872 27.8072 19.0236 27.8958 18.9053 28.0318C18.7869 28.1677 18.7217 28.3419 18.7217 28.5222C18.7217 28.7025 18.7869 28.8767 18.9053 29.0127C19.0236 29.1487 19.1872 29.2373 19.3657 29.2622C19.5443 29.287 19.7258 29.2465 19.8768 29.148C20.0278 29.0496 20.1382 28.8998 20.1874 28.7264H21.5571L23.5493 30.7186V31.904L29.2184 37.5731H27.7143L24.4495 34.3084H23.3613L21.7526 32.6959C21.8077 32.5963 21.8393 32.4853 21.845 32.3716C21.8507 32.2579 21.8303 32.1443 21.7854 32.0397C21.7405 31.935 21.6723 31.842 21.5859 31.7678C21.4996 31.6935 21.3974 31.64 21.2872 31.6113C21.177 31.5826 21.0616 31.5795 20.95 31.6021C20.8384 31.6248 20.7335 31.6727 20.6433 31.7422C20.553 31.8116 20.4798 31.9008 20.4293 32.0029C20.3788 32.1049 20.3523 32.2172 20.3518 32.3311C20.3514 32.4617 20.3852 32.5902 20.4499 32.7036C20.5146 32.8171 20.6079 32.9116 20.7206 32.9778C20.8332 33.0439 20.9612 33.0794 21.0918 33.0806C21.2224 33.0818 21.3511 33.0488 21.465 32.9848L23.192 34.713H24.2802L27.5462 37.9765H29.6268L30.08 38.4298V45.9367H30.6229V38.2056L28.3817 35.9644V35.1401L30.0078 33.504V31.9625C30.1812 31.9133 30.331 31.8029 30.4295 31.6519C30.5279 31.5009 30.5684 31.3194 30.5436 31.1408C30.5187 30.9623 30.4301 30.7987 30.2941 30.6804C30.1581 30.562 29.9839 30.4968 29.8036 30.4968C29.6233 30.4968 29.4491 30.562 29.3132 30.6804C29.1772 30.7987 29.0886 30.9623 29.0637 31.1408C29.0388 31.3194 29.0793 31.5009 29.1778 31.6519C29.2763 31.8029 29.426 31.9133 29.5994 31.9625V33.3322L28.3742 34.5574V30.3239C28.5477 30.2748 28.6976 30.1646 28.7962 30.0135C28.8948 29.8625 28.9354 29.681 28.9106 29.5024C28.8858 29.3237 28.7972 29.1601 28.6612 29.0417C28.5252 28.9233 28.351 28.858 28.1706 28.858C27.9903 28.858 27.816 28.9233 27.68 29.0417C27.544 29.1601 27.4555 29.3237 27.4307 29.5024C27.4058 29.681 27.4465 29.8625 27.5451 30.0135C27.6437 30.1646 27.7935 30.2748 27.9671 30.3239V33.4654L26.7468 32.2489V28.6965C26.9202 28.6473 27.07 28.5369 27.1684 28.3859C27.2669 28.2349 27.3074 28.0534 27.2826 27.8748C27.2577 27.6963 27.1691 27.5327 27.0331 27.4144C26.8971 27.296 26.7229 27.2308 26.5426 27.2308C26.3623 27.2308 26.1881 27.296 26.0521 27.4144C25.9162 27.5327 25.8276 27.6963 25.8027 27.8748C25.7778 28.0534 25.8183 28.2349 25.9168 28.3859C26.0153 28.5369 26.165 28.6473 26.3384 28.6965V30.7548L25.1132 29.5295V27.0654C25.2866 27.0161 25.4364 26.9058 25.5348 26.7548C25.6333 26.6038 25.6738 26.4223 25.6489 26.2437C25.6241 26.0651 25.5355 25.9016 25.3995 25.7832C25.2635 25.6649 25.0893 25.5997 24.909 25.5997C24.7287 25.5997 24.5545 25.6649 24.4185 25.7832C24.2825 25.9016 24.1939 26.0651 24.1691 26.2437C24.1442 26.4223 24.1847 26.6038 24.2832 26.7548C24.3816 26.9058 24.5314 27.0161 24.7048 27.0654V29.6951L26.3384 31.3275V32.4158L27.9708 34.0494V35.5523L24.0934 31.6749V28.4102L22.9367 27.2534V22.9963L20.5286 20.5882C20.5833 20.4886 20.6145 20.3777 20.6199 20.2642C20.6253 20.1506 20.6047 20.0373 20.5596 19.933C20.5146 19.8286 20.4464 19.7358 20.3601 19.6618C20.2738 19.5878 20.1718 19.5345 20.0618 19.5058C19.9518 19.4772 19.8367 19.4741 19.7253 19.4966C19.6138 19.5192 19.5091 19.5669 19.4189 19.6361C19.3287 19.7053 19.2555 19.7942 19.2048 19.896C19.1542 19.9977 19.1274 20.1097 19.1266 20.2234" fill="white"/>
</mask>
<g mask="url(#mask11_58_105)">
<path d="M18.2473 19.2584L17.7817 45.9276L30.6196 46.1517L31.0851 19.4825L18.2473 19.2584Z" fill="white"/>
</g>
<mask id="mask12_58_105" style="mask-type:luminance" maskUnits="userSpaceOnUse" x="22" y="35" width="7" height="11">
<path d="M22.9365 36.1412C22.9365 36.074 22.9564 36.0083 22.9938 35.9524C23.0311 35.8965 23.0842 35.8529 23.1463 35.8272C23.2085 35.8014 23.2768 35.7947 23.3427 35.8078C23.4087 35.8209 23.4693 35.8533 23.5168 35.9009C23.5643 35.9484 23.5967 36.009 23.6098 36.0749C23.6229 36.1408 23.6162 36.2092 23.5905 36.2713C23.5647 36.3334 23.5212 36.3865 23.4653 36.4239C23.4094 36.4612 23.3437 36.4811 23.2764 36.4811C23.1864 36.4808 23.1001 36.4449 23.0364 36.3812C22.9728 36.3175 22.9368 36.2313 22.9365 36.1412ZM22.5281 36.1412C22.5281 36.3394 22.6068 36.5294 22.7469 36.6695C22.887 36.8096 23.077 36.8883 23.2752 36.8883C23.403 36.8881 23.5286 36.8551 23.64 36.7924L25.2475 38.4011V40.0335L27.9693 42.7541V45.9355H28.3765V42.5836L25.6559 39.8629V38.233L23.9289 36.5048C23.9836 36.4051 24.0148 36.2942 24.0202 36.1806C24.0255 36.067 24.0049 35.9537 23.9598 35.8493C23.9147 35.7448 23.8464 35.6521 23.76 35.5781C23.6737 35.5041 23.5715 35.4508 23.4615 35.4222C23.3514 35.3937 23.2362 35.3906 23.1248 35.4134C23.0133 35.4361 22.9085 35.4839 22.8184 35.5533C22.7283 35.6226 22.6551 35.7116 22.6046 35.8135C22.5541 35.9154 22.5275 36.0275 22.5269 36.1412" fill="white"/>
</mask>
<g mask="url(#mask12_58_105)">
<path d="M22.5295 35.2911L22.3438 45.9329L28.3755 46.0381L28.5613 35.3963L22.5295 35.2911Z" fill="white"/>
</g>
<mask id="mask13_58_105" style="mask-type:luminance" maskUnits="userSpaceOnUse" x="34" y="35" width="3" height="11">
<path d="M35.4525 36.1414C35.4523 36.0739 35.4721 36.0078 35.5094 35.9515C35.5468 35.8953 35.6 35.8513 35.6623 35.8253C35.7246 35.7993 35.7932 35.7924 35.8595 35.8054C35.9258 35.8184 35.9867 35.8508 36.0345 35.8985C36.0823 35.9461 36.1149 36.0069 36.1282 36.0731C36.1415 36.1394 36.1348 36.208 36.109 36.2704C36.0832 36.3328 36.0395 36.3862 35.9834 36.4237C35.9272 36.4613 35.8612 36.4813 35.7937 36.4813C35.7034 36.4813 35.6168 36.4456 35.5529 36.3818C35.4889 36.3181 35.4529 36.2317 35.4525 36.1414ZM35.0441 36.1414C35.0441 36.3044 35.0973 36.463 35.1958 36.593C35.2942 36.7229 35.4325 36.8171 35.5895 36.8611V38.2307L34.5 39.319V45.9344H34.9084V39.4908L35.9979 38.4026V36.8561C36.1313 36.8177 36.2513 36.7429 36.3445 36.6402C36.4378 36.5374 36.5005 36.4106 36.5258 36.2742C36.5511 36.1377 36.5378 35.9969 36.4876 35.8676C36.4373 35.7382 36.352 35.6254 36.2412 35.5418C36.1304 35.4583 35.9985 35.4072 35.8604 35.3943C35.7222 35.3815 35.5832 35.4074 35.4589 35.4691C35.3346 35.5308 35.2299 35.626 35.1567 35.7438C35.0834 35.8617 35.0445 35.9976 35.0441 36.1364" fill="white"/>
</mask>
<g mask="url(#mask13_58_105)">
<path d="M34.5005 35.3583L34.3159 45.9341L36.5394 45.973L36.724 35.3971L34.5005 35.3583Z" fill="white"/>
</g>
</g>
<defs>
<clipPath id="clip0_58_105">
<rect width="64" height="64" fill="white"/>
</clipPath>
</defs>
</svg>
