<svg width="4326" height="695" viewBox="0 0 4326 695" fill="none" xmlns="http://www.w3.org/2000/svg">
<g clip-path="url(#clip0_109_3)">
<path d="M3720.74 229.27V651.92C3720.74 674.04 3736.62 690.99 3760.45 690.99C3784.28 690.99 3801.15 673.58 3801.15 651.92V229.27C3801.15 206.67 3783.28 189.74 3760.94 189.74C3738.11 189.73 3720.74 206.67 3720.74 229.27ZM2229.07 255.16C2315.43 255.16 2372.52 310.69 2366.06 396.35C2365.07 405.76 2361.59 409.06 2352.16 409.06H2085.63C2083.15 313.51 2131.29 255.16 2229.07 255.16ZM2008.7 378.94C2006.72 408.59 2005.73 457.54 2008.21 492.37C2016.15 613.33 2095.56 695.23 2234.04 695.23C2298.57 695.23 2351.68 682.05 2385.92 666.05C2405.78 657.11 2413.22 644.4 2413.22 630.75C2413.22 610.98 2396.34 594.98 2375.99 594.98C2367.06 594.98 2357.13 598.75 2344.72 604.39C2316.43 617.1 2281.19 623.69 2236.03 623.69C2147.68 623.69 2085.64 576.62 2085.64 488.61V472.61H2381.46C2424.14 472.61 2442.51 450.96 2442.51 418.95V388.36C2442.51 268.81 2360.12 185.51 2229.08 185.51C2106.48 185.5 2018.62 258.92 2008.7 378.94ZM2517.35 378C2514.86 414.24 2514.86 467.9 2517.35 501.31C2525.29 611.92 2612.65 695.23 2738.22 695.23C2872.73 695.23 2942.71 604.39 2942.71 555.91C2942.71 535.2 2924.84 518.26 2904 518.26C2885.64 518.26 2872.73 528.61 2866.28 544.62C2847.42 597.34 2792.82 620.87 2738.73 620.87C2656.83 620.87 2604.22 571.45 2597.27 497.09C2594.78 468.38 2595.28 413.31 2597.77 383.66C2603.23 311.18 2656.83 259.88 2738.73 259.88C2792.83 259.88 2847.43 283.89 2866.28 336.13C2872.73 352.13 2885.64 362.49 2904 362.49C2924.85 362.49 2942.71 346.01 2942.71 325.3C2942.71 276.35 2872.72 185.52 2738.22 185.52C2614.63 185.5 2523.8 265.04 2517.35 378ZM3382.54 334.7V651.45C3382.54 673.11 3400.9 690.99 3422.74 690.99C3446.06 690.99 3463.44 673.11 3463.44 651.45V343.64C3463.44 285.75 3492.23 260.8 3549.8 260.8C3569.16 260.8 3584.55 262.69 3591.5 264.1C3605.4 266.44 3616.32 269.27 3624.76 269.27C3646.1 269.27 3662.48 252.33 3662.48 231.62C3662.48 209.5 3646.1 199.15 3629.22 194.44C3611.85 189.73 3579.09 185.5 3544.35 185.5C3439.62 185.5 3382.54 241.51 3382.54 334.7ZM3900.3 378C3897.82 414.24 3897.82 467.9 3900.3 501.31C3908.24 611.92 3995.6 695.23 4121.17 695.23C4255.68 695.23 4325.66 604.39 4325.66 555.91C4325.66 535.2 4307.79 518.26 4286.94 518.26C4268.58 518.26 4255.67 528.61 4249.22 544.62C4230.36 597.34 4175.76 620.87 4121.66 620.87C4039.77 620.87 3987.16 571.45 3980.21 497.09C3977.72 468.38 3978.22 413.31 3980.71 383.66C3986.17 311.18 4039.77 259.88 4121.66 259.88C4175.76 259.88 4230.36 283.89 4249.22 336.13C4255.67 352.13 4268.58 362.49 4286.94 362.49C4307.78 362.49 4325.66 346.01 4325.66 325.3C4325.66 276.35 4255.68 185.52 4121.17 185.52C3997.59 185.5 3906.76 265.04 3900.3 378ZM3026.39 118.19V540.84C3026.39 626.97 3072.05 695.22 3180.75 695.22C3221.45 695.22 3257.18 688.16 3284.48 676.39C3302.35 668.39 3313.27 657.57 3313.27 640.15C3313.27 621.8 3298.38 605.8 3277.04 604.85C3271.08 604.85 3264.13 606.73 3258.17 608.62C3234.35 617.56 3210.53 621.8 3186.7 621.8C3129.13 621.8 3106.79 588.85 3106.79 540.84V266.44H3256.18C3277.52 266.44 3296.38 250.44 3296.38 231.14C3296.38 209.02 3277.52 193.96 3256.18 193.96H3106.8V118.18C3106.8 96.0601 3088.93 77.7 3065.6 77.7C3043.76 77.71 3026.39 96.0699 3026.39 118.19ZM1360.4 26.89C1315.23 26.89 1291.91 56.54 1291.91 91.37V622.27C1291.91 657.57 1315.23 686.76 1360.4 686.76H1705.35C1728.18 686.76 1745.55 670.29 1745.55 649.58C1745.55 628.87 1728.18 612.4 1705.35 612.4H1373.3V390.72H1690.96C1712.8 390.72 1729.67 374.72 1729.67 354.48C1729.67 334.72 1712.8 318.71 1690.96 318.71H1373.3V101.26H1703.37C1726.2 101.26 1743.57 84.79 1743.57 64.08C1743.57 43.37 1726.2 26.9 1703.37 26.9H1360.4V26.89ZM3712.3 67.83C3712.3 94.19 3732.15 115.84 3760.45 115.84C3788.24 115.84 3810.08 94.19 3810.08 67.83C3810.08 42.41 3788.24 21.7 3760.45 21.7C3732.15 21.71 3712.3 42.42 3712.3 67.83ZM1827.75 57V651.92C1827.75 673.11 1846.11 690.99 1867.95 690.99C1890.78 690.99 1908.15 673.11 1908.15 651.92V57C1908.15 34.88 1889.79 17 1867.95 17C1845.61 17 1827.75 34.88 1827.75 57Z" fill="url(#paint0_linear_109_3)"/>
<path d="M889.25 696.38C764.51 696.38 669.17 613.99 657.41 496.03C653.36 455.33 653.36 407.01 657.41 366.78C660.23 338.12 667.98 311.08 680.45 286.45C692.75 262.14 709.35 240.74 729.77 222.86C771.93 185.94 827.08 166.43 889.25 166.43C951.63 166.43 1006.93 185.94 1049.15 222.86C1069.6 240.74 1086.22 262.14 1098.53 286.45C1111 311.07 1118.76 338.11 1121.58 366.8C1125.62 407.01 1125.62 455.32 1121.58 496.02C1115.96 552.39 1090.25 603.31 1049.17 639.4C1006.76 676.67 951.46 696.38 889.25 696.38ZM889.25 188.74C832.57 188.74 782.51 206.34 744.47 239.65C707.15 272.32 684.73 317.05 679.62 368.98C675.71 407.84 675.71 454.5 679.62 493.81C684.67 544.51 707.71 590.27 744.5 622.64C782.71 656.27 832.77 674.05 889.26 674.05C945.96 674.05 996.17 656.27 1034.45 622.63C1071.27 590.28 1094.33 544.53 1099.38 493.8C1103.29 454.49 1103.29 407.84 1099.38 369C1094.26 317.02 1071.82 272.3 1034.47 239.65C996.37 206.35 946.15 188.74 889.25 188.74ZM303.68 696.38C262 696.38 222.51 689.39 186.33 675.6C151.44 662.3 120.23 642.95 93.5798 618.09C41.0098 569.04 8.84984 500.13 3.01984 424.06C-0.970156 374.45 -0.970156 321.97 3.01984 272.32C8.55984 197.47 41.3898 128.73 95.4698 78.8101C122.45 53.9001 153.75 34.46 188.49 21.03C224.51 7.10003 263.26 0.0400391 303.66 0.0400391C423.54 0.0400391 519.92 55.94 561.6 149.61C565.75 157.08 568.22 166.79 568.22 175.72C568.22 202.29 545.45 223.91 517.47 223.91C497.79 223.91 481.02 213.54 471.47 195.46L471.02 194.51C458.81 164.95 437.14 140.34 408.35 123.34C379.04 106.03 342.84 96.88 303.66 96.88C250.7 97.1 204.07 114.28 168.85 146.56C133.14 179.29 111.72 225.37 106.91 279.82C101.74 336.1 101.89 381.78 107.36 423.63C114.72 478.95 134.45 522.26 165.98 552.35C199.78 584.59 246.77 600.94 305.64 600.94C357.44 600.94 401.66 587 433.51 560.62C464.3 535.12 480.57 500.41 480.57 460.23V410.92H348.22C320.23 410.92 297.47 389.09 297.47 362.26C297.47 335.32 319.29 315.01 348.22 315.01H505.11C528.47 315.01 548.15 322.26 562.02 335.99C574.97 348.8 582.1 366.79 582.1 386.64V451.79C582.1 517.13 554.85 578.11 505.36 623.49C480.38 646.4 450.78 664.32 417.4 676.74C382.39 689.77 344.13 696.38 303.68 696.38ZM303.68 22.35C266.04 22.35 230 28.91 196.56 41.84C164.45 54.26 135.54 72.21 110.62 95.21C60.7098 141.27 30.3999 204.78 25.2799 274.04C21.3699 322.59 21.3698 373.84 25.2698 422.31C30.6698 492.83 60.3398 556.55 108.8 601.77C159.48 649.06 226.87 674.06 303.67 674.06C341.45 674.06 377.09 667.92 409.6 655.82C440.27 644.4 467.4 627.99 490.26 607.03C535.08 565.93 559.77 510.8 559.77 451.78V386.63C559.77 362.79 545.41 337.32 505.1 337.32H348.22C331.74 337.32 319.79 347.81 319.79 362.25C319.79 374.92 330.66 388.59 348.22 388.59H502.91V460.22C502.91 556.21 421.8 623.25 305.66 623.25C180.41 623.25 102.13 553.39 85.2498 426.54C79.5598 382.98 79.3798 335.73 84.6998 277.8C90.0098 217.75 113.9 166.66 153.79 130.09C193.17 93.99 244.98 74.79 303.64 74.54C346.85 74.54 386.98 84.76 419.73 104.1C452.55 123.48 477.34 151.6 491.46 185.44C495.51 192.9 503.29 201.57 517.49 201.57C532.9 201.57 545.92 189.72 545.92 175.7C545.92 169.32 543.79 163.34 541.96 160.17L541.67 159.66L541.43 159.12C522.92 117.26 491.59 82.63 450.82 58.97C409.53 35.01 358.64 22.35 303.68 22.35ZM889.25 622.32C847.08 622.32 810.53 609.88 783.55 586.35C756.87 563.08 740.8 530.21 737.09 491.29C733.32 452.48 733.32 411.22 737.09 371.98C740.81 333.24 756.87 300.44 783.54 277.11C810.58 253.46 847.14 240.95 889.25 240.95C974.35 240.95 1034.26 292.38 1041.9 371.97C1045.67 411.23 1045.67 452.5 1041.9 491.3C1038.19 530.17 1022.04 563.05 995.17 586.36C968.08 609.88 931.45 622.32 889.25 622.32ZM889.25 263.27C815.66 263.27 765.87 305.74 759.31 374.11C755.67 411.94 755.67 451.72 759.31 489.15C765.83 557.53 815.62 600 889.25 600C963.19 600 1013.17 557.53 1019.68 489.17C1023.31 451.75 1023.31 411.97 1019.68 374.11C1016.52 341.19 1002.98 313.47 980.53 293.93C957.49 273.87 925.93 263.27 889.25 263.27Z" fill="#F1F900"/>
</g>
<defs>
<linearGradient id="paint0_linear_109_3" x1="1502.55" y1="-292.361" x2="3995.71" y2="1147.06" gradientUnits="userSpaceOnUse">
<stop stop-color="#4B00C8"/>
<stop offset="0.00253049" stop-color="#4906C9"/>
<stop offset="0.0225" stop-color="#3B35D3"/>
<stop offset="0.045" stop-color="#2F60DD"/>
<stop offset="0.0691" stop-color="#2387E5"/>
<stop offset="0.0953" stop-color="#1AA7EC"/>
<stop offset="0.1241" stop-color="#12C3F2"/>
<stop offset="0.1566" stop-color="#0BD9F7"/>
<stop offset="0.1943" stop-color="#06EAFB"/>
<stop offset="0.2407" stop-color="#03F6FD"/>
<stop offset="0.3051" stop-color="#01FDFF"/>
<stop offset="0.4767" stop-color="#00FFFF"/>
<stop offset="1" stop-color="#F1F900"/>
</linearGradient>
<clipPath id="clip0_109_3">
<rect width="4326" height="695" fill="white"/>
</clipPath>
</defs>
</svg>
