<svg width="5381" height="1201" viewBox="0 0 5381 1201" fill="none" xmlns="http://www.w3.org/2000/svg">
<g clip-path="url(#clip0_109_16)">
<path d="M3911.61 1416.36H3892.03V139.1C3898.57 137.48 3905.09 135.9 3911.61 134.34V1416.36ZM3838.18 153C3831.66 154.75 3825.13 156.53 3818.6 158.33V1416.36H3838.18V153ZM3948.33 125.86C3941.81 127.31 3935.28 128.79 3928.75 130.31V1416.37H3948.33V125.86ZM3874.9 143.4C3868.38 145.06 3861.85 146.74 3855.32 148.46V1416.37H3874.9V143.4ZM3434.32 285.09C3427.8 287.5 3421.27 289.91 3414.74 292.34V1416.37H3434.32V285.09ZM4058.47 104.29C4051.95 105.38 4045.42 106.51 4038.89 107.67V1416.37H4058.47V104.29ZM3985.04 118C3978.52 119.34 3971.99 120.71 3965.46 122.11V1416.36H3985.04V118ZM3801.47 163.12C3794.95 164.96 3788.42 166.82 3781.89 168.71V1416.37H3801.47V163.12ZM4021.76 110.79C4015.24 112.01 4008.71 113.26 4002.18 114.55V1416.36H4021.76V110.79ZM3581.18 232.62C3574.66 234.86 3568.13 237.12 3561.6 239.39V1416.37H3581.18V232.62ZM3544.46 245.38C3537.94 247.67 3531.41 249.97 3524.88 252.29V1416.36H3544.46V245.38ZM3507.75 258.4C3501.23 260.73 3494.7 263.08 3488.17 265.44V1416.37H3507.75V258.4ZM3471.03 271.64C3464.51 274.01 3457.98 276.4 3451.45 278.79V1416.36H3471.03V271.64ZM3654.61 207.98C3648.09 210.11 3641.56 212.26 3635.03 214.42V1416.36H3654.61V207.98ZM3691.32 196.17C3684.8 198.24 3678.27 200.32 3671.74 202.42V1416.36H3691.32V196.17ZM3728.04 184.73C3721.52 186.73 3714.99 188.74 3708.46 190.78V1416.36H3728.04V184.73ZM3764.75 173.7C3758.23 175.62 3751.7 177.56 3745.17 179.53V1416.36H3764.75V173.7ZM3617.89 220.14C3611.37 222.33 3604.84 224.53 3598.31 226.76V1416.37H3617.89V220.14ZM4095.19 98.5204C4088.67 99.4804 4082.14 100.47 4075.61 101.5V1416.36H4095.19V98.5204ZM2149.28 695.72C2142.75 696.67 2136.22 697.59 2129.7 698.48V1416.37H2149.28V695.72ZM2039.14 708.8C2032.61 709.4 2026.09 709.96 2019.56 710.49V1416.36H2039.14V708.8ZM2186 690.06C2179.47 691.12 2172.95 692.15 2166.42 693.15V1416.36H2186V690.06ZM2075.85 705.11C2069.32 705.83 2062.8 706.51 2056.27 707.17V1416.37H2075.85V705.11ZM2112.57 700.74C2106.04 701.58 2099.52 702.38 2092.99 703.15V1416.36H2112.57V700.74ZM2296.14 669.6C2289.61 670.96 2283.09 672.3 2276.56 673.6V1416.36H2296.14V669.6ZM2259.43 676.98C2252.9 678.24 2246.38 679.48 2239.85 680.69V1416.36H2259.43V676.98ZM2222.71 683.81C2216.18 684.97 2209.66 686.11 2203.13 687.22V1416.37H2222.71V683.81ZM4205.33 86.0803C4198.81 86.5803 4192.28 87.1403 4185.75 87.7303V1416.37H4205.33V86.0803ZM4131.91 93.5304C4125.39 94.3404 4118.86 95.2003 4112.33 96.0903V1416.36H4131.91V93.5304ZM4278.77 82.3503C4272.25 82.5103 4265.73 82.7003 4259.19 82.9503V1416.36H4278.77V82.3503ZM4242.05 83.7203C4235.53 84.0503 4229.01 84.4304 4222.47 84.8604V1416.36H4242.05V83.7203ZM4168.62 89.3704C4162.1 90.0304 4155.57 90.7404 4149.04 91.4904V1416.37H4168.62V89.3704ZM1909.41 1416.36H1928.99V715.65C1922.46 715.86 1915.93 716.03 1909.41 716.16V1416.36ZM3121.01 1416.36H3140.59V396.83C3138.49 397.64 3136.4 398.44 3134.3 399.25C3129.87 400.95 3125.44 402.66 3121.01 404.36V1416.36ZM2002.42 711.81C1995.89 712.28 1989.37 712.72 1982.84 713.12V1416.37H2002.42V711.81ZM1965.71 714.1C1959.18 714.44 1952.66 714.75 1946.13 715.02V1416.37H1965.71V714.1ZM3397.6 298.72C3391.08 301.15 3384.55 303.6 3378.02 306.05V1416.37H3397.6V298.72ZM4388.91 84.5903C4382.39 84.1503 4375.87 83.7703 4369.33 83.4403V1416.36H4388.91V84.5903ZM4332.61 1416.36H4352.19V82.7203C4345.67 82.4903 4339.15 82.3103 4332.61 82.1903V1416.36ZM5030.2 1416.36H5049.78V401.48C5049.45 401.14 5049.11 400.81 5048.78 400.47C5042.61 394.02 5036.41 387.7 5030.2 381.47V1416.36ZM4425.63 87.6604C4419.11 87.0004 4412.59 86.4004 4406.05 85.8604V1416.36H4425.63V87.6604ZM4572.49 113.28C4565.98 111.63 4559.45 110.04 4552.91 108.52V1416.36H4572.49V113.28ZM4462.34 92.0004C4455.83 91.1104 4449.3 90.2904 4442.76 89.5204V1416.37H4462.34V92.0004ZM2332.86 661.69C2326.33 663.14 2319.81 664.57 2313.28 665.98V1416.37H2332.86V661.69ZM4535.77 104.73C4529.26 103.35 4522.73 102.02 4516.19 100.77V1416.36H4535.77V104.73ZM4499.06 97.6604C4492.54 96.5304 4486.02 95.4603 4479.48 94.4603V1416.36H4499.06V97.6604ZM5196.65 498.61C5190.07 496.03 5183.54 493.31 5177.07 490.42V1416.36H5196.65V498.61ZM5123.22 461.53C5116.6 457.33 5110.08 452.89 5103.64 448.24V1416.36H5123.22V461.53ZM5159.93 482.28C5153.33 478.98 5146.8 475.52 5140.35 471.85V1416.37H5159.93V482.28ZM4609.2 123.38C4602.69 121.45 4596.16 119.57 4589.62 117.78V1416.37H4609.2V123.38ZM5086.5 435.16C5079.87 429.79 5073.33 424.17 5066.92 418.25V1416.37H5086.5V435.16ZM5343.51 534.5C5336.96 533.64 5330.43 532.71 5323.93 531.7V1416.37H5343.51V534.5ZM5306.79 528.84C5300.23 527.67 5293.71 526.42 5287.21 525.07V1416.36H5306.79V528.84ZM5233.36 511.4C5226.79 509.39 5220.26 507.25 5213.78 504.98V1416.37H5233.36V511.4ZM5270.08 521.29C5263.51 519.74 5256.99 518.09 5250.5 516.33V1416.37H5270.08V521.29ZM5380.22 538.65C5373.68 538.03 5367.15 537.36 5360.64 536.62V1416.36H5380.22V538.65ZM4976.35 330.69C4969.84 324.93 4963.32 319.29 4956.77 313.76V1416.36H4976.35V330.69ZM3214.02 368.56C3207.5 371.07 3200.97 373.58 3194.44 376.1V1416.37H3214.02V368.56ZM4295.9 1416.36H4315.48V81.9904C4313.46 81.9804 4311.44 81.9603 4309.41 81.9603C4304.91 81.9603 4300.4 82.0004 4295.89 82.0504V1416.36H4295.9ZM5013.07 364.63C5006.56 358.36 5000.04 352.2 4993.49 346.17V1416.37H5013.07V364.63ZM3157.73 1416.36H3177.31V382.7C3170.79 385.21 3164.26 387.73 3157.73 390.24V1416.36ZM3324.17 326.39C3317.65 328.87 3311.12 331.35 3304.59 333.84V1416.36H3324.17V326.39ZM3360.89 312.49C3354.37 314.95 3347.84 317.41 3341.31 319.89V1416.37H3360.89V312.49ZM3250.74 354.45C3244.22 356.95 3237.69 359.46 3231.16 361.97V1416.37H3250.74V354.45ZM3287.46 340.38C3280.94 342.87 3274.41 345.37 3267.88 347.88V1416.37H3287.46V340.38ZM4756.06 181.03C4749.55 177.81 4743.02 174.67 4736.48 171.62V1416.36H4756.06V181.03ZM4792.78 200.24C4786.27 196.65 4779.74 193.14 4773.2 189.73V1416.36H4792.78V200.24ZM4645.92 135.11C4639.41 132.88 4632.88 130.71 4626.34 128.63V1416.36H4645.92V135.11ZM4719.35 163.83C4712.84 160.95 4706.31 158.18 4699.77 155.47V1416.37H4719.35V163.83ZM4682.63 148.56C4676.12 146.02 4669.59 143.55 4663.05 141.17V1416.37H4682.63V148.56ZM4829.49 221.57C4822.98 217.59 4816.45 213.69 4809.91 209.9V1416.36H4829.49V221.57ZM4902.92 271.11C4896.41 266.29 4889.88 261.58 4883.34 256.96V1416.36H4902.92V271.11ZM4866.21 245.14C4859.7 240.75 4853.17 236.48 4846.63 232.29V1416.36H4866.21V245.14ZM4939.64 299.57C4933.13 294.29 4926.61 289.11 4920.06 284.05V1416.36H4939.64V299.57ZM2920.3 480.33C2913.78 482.74 2907.25 485.14 2900.72 487.54V1416.36H2920.3V480.33ZM827.53 375.87C821 372.11 814.47 368.36 807.95 364.6V1416.36H827.53V375.87ZM790.82 354.74C784.29 350.98 777.77 347.23 771.24 343.48V1416.37H790.82V354.74ZM754.1 333.64C747.58 329.9 741.05 326.17 734.52 322.44V1416.37H754.1V333.64ZM680.67 291.94C674.15 288.29 667.63 284.65 661.09 281.02V1416.37H680.67V291.94ZM717.39 312.67C710.87 308.97 704.34 305.27 697.81 301.58V1416.36H717.39V312.67ZM350.24 130.08C343.74 127.5 337.22 124.95 330.66 122.42V1416.36H350.24V130.08ZM974.4 458.63C967.86 455.06 961.33 451.49 954.82 447.89V1416.36H974.4V458.63ZM900.97 417.81C894.43 414.11 887.91 410.41 881.39 406.7V1416.36H900.97V417.81ZM864.25 396.93C857.72 393.2 851.19 389.46 844.67 385.71V1416.36H864.25V396.93ZM386.95 145.08C380.46 142.35 373.92 139.65 367.37 136.97V1416.36H386.95V145.08ZM423.67 160.99C417.17 158.11 410.64 155.24 404.09 152.41V1416.36H423.67V160.99ZM460.38 177.68C453.88 174.66 447.35 171.66 440.8 168.69V1416.37H460.38V177.68ZM1011.11 478.41C1004.56 474.93 998.041 471.44 991.531 467.93V1416.37H1011.11V478.41ZM497.1 195.11C490.6 191.95 484.07 188.82 477.52 185.71V1416.36H497.1V195.11ZM607.24 251.6C600.73 248.1 594.2 244.63 587.66 241.17V1416.37H607.24V251.6ZM533.81 213.32C527.3 210.04 520.78 206.77 514.23 203.53V1416.37H533.81V213.32ZM643.96 271.55C637.45 267.97 630.92 264.4 624.38 260.85V1416.37H643.96V271.55ZM570.53 232.17C564.02 228.77 557.49 225.4 550.95 222.04V1416.37H570.53V232.17ZM937.68 438.4C931.14 434.76 924.61 431.11 918.1 427.45V1416.36H937.68V438.4ZM1451.69 658.97C1445.12 657.18 1438.61 655.33 1432.11 653.48V1416.36H1451.69V658.97ZM1488.41 668.47C1481.85 666.84 1475.32 665.18 1468.83 663.49V1416.36H1488.41V668.47ZM1525.12 677.15C1518.57 675.68 1512.02 674.21 1505.54 672.67V1416.36H1525.12V677.15ZM1414.98 648.54C1408.42 646.6 1401.89 644.64 1395.4 642.64V1416.36H1414.98V648.54ZM5397.36 540.17V1416.36H5424.82V542.14C5415.64 541.57 5406.49 540.91 5397.36 540.17ZM1561.84 685.01C1555.29 683.68 1548.74 682.35 1542.26 680.96V1416.36H1561.84V685.01ZM-16.9196 28.3503C-23.1996 27.3503 -29.4596 26.3404 -35.8096 25.4004V1416.37H-16.9196V28.3503ZM1378.26 637.24C1371.7 635.15 1365.17 633.02 1358.68 630.87V1416.36H1378.26V637.24ZM1598.55 692.05C1591.98 690.87 1585.47 689.63 1578.97 688.38V1416.36H1598.55V692.05ZM1047.83 497.62C1041.28 494.25 1034.75 490.86 1028.25 487.45V1416.37H1047.83V497.62ZM1341.55 625.12C1334.99 622.87 1328.47 620.57 1321.97 618.26V1416.37H1341.55V625.12ZM1194.69 567.76C1188.14 564.9 1181.61 562.02 1175.11 559.11V1416.37H1194.69V567.76ZM1157.97 551.36C1151.42 548.36 1144.89 545.33 1138.39 542.28V1416.36H1157.97V551.36ZM1084.54 516.22C1077.99 512.96 1071.46 509.68 1064.96 506.38V1416.37H1084.54V516.22ZM1121.26 534.15C1114.71 531.01 1108.18 527.85 1101.68 524.67V1416.36H1121.26V534.15ZM1304.83 612.04C1298.27 609.63 1291.74 607.2 1285.25 604.73V1416.36H1304.83V612.04ZM1268.12 598.15C1261.57 595.59 1255.03 593.02 1248.54 590.4V1416.37H1268.12V598.15ZM1231.4 583.37C1224.84 580.66 1218.32 577.91 1211.82 575.14V1416.36H1231.4V583.37ZM2957.02 466.68C2950.5 469.12 2943.97 471.55 2937.44 473.97V1416.36H2957.02V466.68ZM3067.16 425.01C3060.64 427.5 3054.11 429.99 3047.58 432.48V1416.36H3067.16V425.01ZM2700.01 558.01C2693.48 560.18 2686.96 562.33 2680.43 564.47V1416.36H2700.01V558.01ZM2736.73 545.67C2730.21 547.89 2723.68 550.09 2717.15 552.29V1416.37H2736.73V545.67ZM2846.87 507.1C2840.34 509.45 2833.82 511.78 2827.29 514.11V1416.36H2846.87V507.1ZM2773.44 533.05C2766.92 535.31 2760.39 537.57 2753.86 539.81V1416.36H2773.44V533.05ZM2993.73 452.9C2987.21 455.36 2980.68 457.82 2974.15 460.27V1416.37H2993.73V452.9ZM2883.59 493.81C2877.07 496.19 2870.54 498.56 2864.01 500.93V1416.37H2883.59V493.81ZM3030.45 439C3023.93 441.48 3017.4 443.95 3010.87 446.43V1416.37H3030.45V439ZM2369.57 653.27C2363.04 654.81 2356.52 656.33 2349.99 657.83V1416.37H2369.57V653.27ZM2810.16 520.19C2803.64 522.5 2797.11 524.79 2790.58 527.08V1416.36H2810.16V520.19ZM2443 634.96C2436.47 636.67 2429.95 638.36 2423.42 640.02V1416.36H2443V634.96ZM2516.44 614.87C2509.91 616.73 2503.39 618.57 2496.86 620.39V1416.36H2516.44V614.87ZM2479.72 625.12C2473.19 626.91 2466.67 628.67 2460.14 630.42V1416.36H2479.72V625.12ZM2663.3 570.06C2656.77 572.17 2650.25 574.27 2643.72 576.36V1416.37H2663.3V570.06ZM2406.29 644.35C2399.76 645.98 2393.24 647.58 2386.71 649.17V1416.37H2406.29V644.35ZM2626.58 581.79C2620.05 583.85 2613.53 585.89 2607 587.91V1416.36H2626.58V581.79ZM2553.15 604.22C2546.62 606.15 2540.1 608.06 2533.57 609.95V1416.37H2553.15V604.22ZM2589.87 593.18C2583.34 595.17 2576.82 597.15 2570.29 599.11V1416.36H2589.87V593.18ZM313.52 115.91C307.02 113.48 300.5 111.07 293.94 108.7V1416.36H313.52V115.91ZM166.66 68.1804C160.16 66.3804 153.65 64.6004 147.08 62.8704V1416.36H166.66V68.1804ZM129.95 58.4703C123.46 56.8303 116.93 55.2404 110.37 53.6704V1416.36H129.95V58.4703ZM93.2304 49.6504C86.7304 48.1704 80.2204 46.6904 73.6504 45.2704V1416.36H93.2304V49.6504ZM0.220432 1416.36H19.8004V34.5604C13.3204 33.3804 6.77043 32.2704 0.220432 31.1604V1416.36ZM240.09 90.2604C233.59 88.1504 227.07 86.0504 220.51 84.0004V1416.36H240.09V90.2604ZM203.38 78.7504C196.89 76.8004 190.35 74.9004 183.8 73.0104V1416.36H203.38V78.7504ZM276.81 102.63C270.32 100.36 263.78 98.1304 257.23 95.9304V1416.37H276.81V102.63ZM56.5204 41.7103C50.0304 40.3803 43.5004 39.0803 36.9404 37.8203V1416.36H56.5204V41.7103ZM1615.69 1416.36H1635.27V698.27C1634.81 698.2 1634.36 698.13 1633.9 698.06C1627.78 697.09 1621.75 696.02 1615.69 695V1416.36ZM1745.42 711.37C1738.89 710.84 1732.36 710.28 1725.84 709.66V1416.36H1745.42V711.37ZM1652.4 1416.36H1671.98V703.57C1665.45 702.71 1658.92 701.81 1652.4 700.86V1416.36ZM1708.7 707.95C1702.17 707.26 1695.64 706.5 1689.12 705.72V1416.36H1708.7V707.95ZM1872.69 1416.36H1892.27V716.43C1886.33 716.49 1880.39 716.53 1874.46 716.53H1874.44H1874.43C1873.85 716.53 1873.27 716.52 1872.69 716.52V1416.36ZM1818.85 715.59C1812.32 715.37 1805.79 715.12 1799.27 714.82V1416.36H1818.85V715.59ZM1855.56 716.42C1849.03 716.35 1842.5 716.23 1835.98 716.08V1416.36H1855.56V716.42ZM1782.13 713.93C1775.6 713.56 1769.07 713.13 1762.55 712.67V1416.37H1782.13V713.93ZM3103.88 410.94C3097.36 413.44 3090.83 415.95 3084.3 418.45V1416.36H3103.88V410.94Z" fill="url(#paint0_linear_109_16)"/>
<g opacity="0.41">
<path d="M2169.22 1106.65C2469.35 1106.67 2670.54 916.23 2866 731.25C2974.6 628.49 3077.18 531.43 3193.14 470.23C3400.97 360.56 3472.55 429.01 3738.92 683.7C3773.66 716.9 3813.03 754.56 3855.81 794.68C4008.08 937.5 4139.08 1005.69 4255.88 1003.78C4388.34 1001.37 4479.23 909.26 4559.42 827.99C4625.34 761.19 4682.25 703.51 4748.89 703.51C5047.04 703.51 5080.66 510.551 5110.33 340.291C5138.57 178.221 5165.25 25.1305 5398.4 25.1305C5405.78 25.1305 5411.77 19.5205 5411.77 12.5905C5411.77 5.67045 5405.78 0.0605469 5398.4 0.0605469C5142.53 0.0605469 5112.75 170.97 5083.95 336.24C5053.28 512.22 5024.31 678.43 4748.88 678.42C4670.56 678.42 4607.04 742.81 4539.78 810.96C4463.22 888.57 4376.43 976.51 4255.34 978.71C4145.97 980.73 4021.54 914.71 3874.69 776.96C3832.01 736.92 3792.68 699.31 3757.97 666.14C3494.44 414.18 3405.66 329.32 3180.01 448.39C3060.79 511.29 2956.94 609.561 2846.99 713.611C2626.38 922.371 2398.27 1138.2 2028.3 1067.77C1815.39 1027.23 1616.04 758.13 1440.12 520.71C1291.86 320.59 1151.82 131.57 1016.48 90.1105C830.23 33.0605 716.73 150.561 585.32 286.621C443.02 433.931 281.68 600.781 -15.7401 583.601C-23.0801 583.141 -29.4601 588.411 -29.9101 595.331C-30.3701 602.251 -24.7701 608.2 -17.4001 608.63C293.04 626.63 458.78 454.97 605.13 303.46C730.31 173.87 838.39 61.9204 1008.18 113.95C1134.99 152.8 1272.54 338.451 1418.18 535.031C1605.68 788.111 1799.57 1049.8 2022.98 1092.35C2074.31 1102.11 2122.96 1106.63 2169.22 1106.65Z" fill="#00FFFF"/>
</g>
<path d="M632.35 1317.17C595.98 1317.17 555.45 1305.5 506.35 1291.37C396.38 1259.72 245.78 1216.38 -9.99994 1248.91C-17.3499 1249.85 -24.1299 1245.01 -25.1299 1238.1C-26.1299 1231.2 -20.9699 1224.86 -13.6199 1223.92C247.99 1190.63 408.2 1236.75 514.23 1267.26C606.54 1293.82 657.39 1308.44 709.02 1260.31C762.35 1210.58 817.78 1095.33 913.53 835.11C980.22 653.85 1135.73 649.2 1286.11 644.7C1410.52 640.98 1539.17 637.13 1629.32 538.66C2009.15 123.75 2489.05 316.91 2997.12 521.4C3362.16 668.33 3739.59 820.27 4106.66 759.34C4350.54 718.85 4530.02 610.85 4703.58 506.4C4907.53 383.67 5118.44 256.76 5433.57 238.42C5440.96 237.86 5447.37 243.27 5447.82 250.21C5448.29 257.16 5442.65 263.15 5435.24 263.59C5127.07 281.53 4928.41 401.07 4718.1 527.63C4542.3 633.41 4360.53 742.81 4111.35 784.17C3736.4 846.39 3355.19 692.97 2986.52 544.57C2487.77 343.83 2016.67 154.21 1649.72 555.08C1551.86 661.97 1417.2 666 1286.97 669.89C1132.77 674.5 999.6 678.5 938.95 843.32C840.47 1110.98 785.26 1224.77 727.98 1278.19C697.34 1306.77 666.7 1317.17 632.35 1317.17Z" fill="url(#paint1_linear_109_16)"/>
</g>
<defs>
<linearGradient id="paint0_linear_109_16" x1="-35.803" y1="720.882" x2="5424.82" y2="720.882" gradientUnits="userSpaceOnUse">
<stop stop-color="#F1F900"/>
<stop offset="0.5233" stop-color="#00FFFF"/>
<stop offset="0.6949" stop-color="#01FDFF"/>
<stop offset="0.7593" stop-color="#03F6FD"/>
<stop offset="0.8057" stop-color="#06EAFB"/>
<stop offset="0.8434" stop-color="#0BD9F7"/>
<stop offset="0.8759" stop-color="#12C3F2"/>
<stop offset="0.9047" stop-color="#1AA7EC"/>
<stop offset="0.9309" stop-color="#2387E5"/>
<stop offset="0.955" stop-color="#2F60DD"/>
<stop offset="0.9775" stop-color="#3B35D3"/>
<stop offset="0.9975" stop-color="#4906C9"/>
<stop offset="1" stop-color="#4B00C8"/>
</linearGradient>
<linearGradient id="paint1_linear_109_16" x1="-25.2596" y1="777.776" x2="5447.83" y2="777.776" gradientUnits="userSpaceOnUse">
<stop stop-color="#4B00C8"/>
<stop offset="0.00253049" stop-color="#4906C9"/>
<stop offset="0.0225" stop-color="#3B35D3"/>
<stop offset="0.045" stop-color="#2F60DD"/>
<stop offset="0.0691" stop-color="#2387E5"/>
<stop offset="0.0953" stop-color="#1AA7EC"/>
<stop offset="0.1241" stop-color="#12C3F2"/>
<stop offset="0.1566" stop-color="#0BD9F7"/>
<stop offset="0.1943" stop-color="#06EAFB"/>
<stop offset="0.2407" stop-color="#03F6FD"/>
<stop offset="0.3051" stop-color="#01FDFF"/>
<stop offset="0.4767" stop-color="#00FFFF"/>
<stop offset="1" stop-color="#F1F900"/>
</linearGradient>
<clipPath id="clip0_109_16">
<rect width="5381" height="1201" fill="white"/>
</clipPath>
</defs>
</svg>
