<svg id="Layer_1" data-name="Layer 1" xmlns="http://www.w3.org/2000/svg" xmlns:xlink="http://www.w3.org/1999/xlink" viewBox="0 0 1551.86 469.83"><defs><style>.cls-1{fill:none;}.cls-2{clip-path:url(#clip-path);}.cls-3{fill:url(#New_Gradient_Swatch);}.cls-4{fill:url(#New_Gradient_Swatch-2);}</style><clipPath id="clip-path"><path class="cls-1" d="M1536.84,452.36h-3.64V17.47h3.64Zm-10.32,0h-3.65V17.47h3.65Zm-10.33,0h-3.65V17.47h3.65Zm-10.33,0h-3.64V17.47h3.64Zm-10.33,0h-3.64V17.47h3.64Zm-10.33,0h-3.64V17.47h3.64Zm-10.32,0h-3.65V17.47h3.65Zm-10.33,0h-3.64V17.47h3.64Zm-10.33,0h-3.64V17.47h3.64Zm-10.33,0h-3.64V17.47h3.64Zm-10.33,0h-3.64V17.47h3.64Zm-10.32,0h-3.65V17.47h3.65Zm-10.33,0h-3.65V17.47h3.65Zm-10.33,0h-3.64V17.47h3.64Zm-10.33,0h-3.64V17.47h3.64Zm-10.32,0h-3.65V17.47h3.65Zm-10.33,0H1368V17.47h3.65Zm-10.33,0h-3.64V17.47h3.64Zm-10.33,0h-3.64V17.47h3.64Zm-10.33,0H1337V17.47h3.64Zm-10.32,0h-3.65V17.47h3.65Zm-10.33,0h-3.64V17.47H1320Zm-10.33,0H1306V17.47h3.64Zm-10.33,0h-3.64V17.47h3.64Zm-10.32,0h-3.65V17.47H1289Zm-10.33,0H1275V17.47h3.65Zm-10.33,0h-3.64V17.47h3.64Zm-10.33,0h-3.64V17.47H1258Zm-10.33,0H1244V17.47h3.64Zm-10.32,0h-3.65V17.47h3.65Zm-10.33,0h-3.64V17.47H1227Zm-10.33,0H1213V17.47h3.64Zm-10.33,0h-3.64V17.47h3.64Zm-10.32,0h-3.65V17.47H1196Zm-10.33,0h-3.65V17.47h3.65Zm-10.33,0h-3.64V17.47h3.64Zm-10.33,0h-3.64V17.47H1165Zm-10.33,0h-3.64V17.47h3.64Zm-10.32,0h-3.65V17.47h3.65Zm-10.33,0h-3.65V17.47h3.65Zm-10.33,0h-3.64V17.47h3.64Zm-10.33,0h-3.64V17.47h3.64Zm-10.33,0h-3.64V17.47h3.64Zm-10.32,0h-3.65V17.47h3.65Zm-10.33,0h-3.64V17.47h3.64Zm-10.33,0h-3.64V17.47h3.64Zm-10.33,0h-3.64V17.47h3.64Zm-10.32,0h-3.65V17.47h3.65Zm-10.33,0h-3.64V17.47h3.64Zm-10.33,0h-3.64V17.47h3.64Zm-10.33,0h-3.64V17.47h3.64Zm-10.32,0h-3.65V17.47h3.65Zm-10.33,0h-3.65V17.47h3.65Zm-10.33,0h-3.64V17.47h3.64Zm-10.33,0H975.5V17.47h3.64Zm-10.33,0h-3.64V17.47h3.64Zm-10.32,0h-3.65V17.47h3.65Zm-10.33,0h-3.64V17.47h3.64Zm-10.33,0h-3.64V17.47h3.64Zm-10.33,0h-3.64V17.47h3.64Zm-10.33,0h-3.64V17.47h3.64Zm-10.32,0H903.2V17.47h3.65Zm-10.33,0h-3.64V17.47h3.64Zm-10.33,0h-3.64V17.47h3.64Zm-10.33,0h-3.64V17.47h3.64Zm-10.32,0h-3.65V17.47h3.65Zm-10.33,0h-3.65V17.47h3.65Zm-10.33,0h-3.64V17.47h3.64Zm-10.33,0h-3.64V17.47h3.64Zm-10.33,0h-3.64V17.47h3.64Zm-10.32,0h-3.65V17.47h3.65Zm-10.33,0h-3.64V17.47h3.64Zm-10.33,0H789.6V17.47h3.64Zm-10.33,0h-3.64V17.47h3.64Zm-10.32,0h-3.65V17.47h3.65Zm-10.33,0h-3.64V17.47h3.64Zm-10.33,0h-3.64V17.47h3.64Zm-10.33,0H738V17.47h3.64Zm-10.33,0h-3.64V17.47h3.64Zm-10.32,0H717.3V17.47H721Zm-10.33,0H707V17.47h3.64Zm-10.33,0h-3.64V17.47h3.64Zm-10.33,0h-3.64V17.47H690Zm-10.32,0H676V17.47h3.65Zm-10.33,0h-3.64V17.47h3.64Zm-10.33,0h-3.64V17.47H659Zm-10.33,0H645V17.47h3.64Zm-10.33,0h-3.64V17.47h3.64Zm-10.32,0h-3.65V17.47H628Zm-10.33,0H614V17.47h3.64Zm-10.33,0H603.7V17.47h3.64Zm-10.33,0h-3.64V17.47H597Zm-10.32,0H583V17.47h3.65Zm-10.33,0h-3.65V17.47h3.65Zm-10.33,0h-3.64V17.47H566Zm-10.33,0h-3.64V17.47h3.64Zm-10.33,0h-3.64V17.47h3.64Zm-10.32,0H531.4V17.47h3.65Zm-10.33,0h-3.64V17.47h3.64Zm-10.33,0h-3.64V17.47h3.64Zm-10.33,0h-3.64V17.47h3.64Zm-10.32,0h-3.65V17.47h3.65Zm-10.33,0h-3.64V17.47h3.64Zm-10.33,0h-3.64V17.47h3.64Zm-10.33,0h-3.64V17.47h3.64Zm-10.33,0h-3.64V17.47h3.64Zm-10.32,0h-3.65V17.47h3.65Zm-10.33,0h-3.64V17.47h3.64Zm-10.33,0H417.8V17.47h3.64Zm-10.33,0h-3.64V17.47h3.64Zm-10.33,0h-3.64V17.47h3.64Zm-10.32,0h-3.65V17.47h3.65Zm-10.33,0h-3.64V17.47h3.64Zm-10.33,0h-3.64V17.47h3.64Zm-10.33,0h-3.64V17.47h3.64Zm-10.32,0H345.5V17.47h3.65Zm-10.33,0h-3.64V17.47h3.64Zm-10.33,0h-3.64V17.47h3.64Zm-10.33,0h-3.64V17.47h3.64Zm-10.32,0h-3.65V17.47h3.65Zm-10.33,0h-3.65V17.47h3.65Zm-10.33,0h-3.64V17.47h3.64Zm-10.33,0h-3.64V17.47h3.64Zm-10.33,0h-3.64V17.47h3.64Zm-10.32,0h-3.65V17.47h3.65Zm-10.33,0h-3.64V17.47h3.64Zm-10.33,0H231.9V17.47h3.64Zm-10.33,0h-3.64V17.47h3.64Zm-10.32,0h-3.65V17.47h3.65Zm-10.33,0h-3.64V17.47h3.64Zm-10.33,0h-3.64V17.47h3.64Zm-10.33,0h-3.64V17.47h3.64Zm-10.33,0h-3.64V17.47h3.64Zm-10.32,0H159.6V17.47h3.65Zm-10.33,0h-3.64V17.47h3.64Zm-10.33,0H139V17.47h3.64Zm-10.33,0h-3.64V17.47h3.64Zm-10.33,0h-3.64V17.47h3.64Zm-10.32,0H108V17.47h3.65Zm-10.33,0H97.64V17.47h3.64Zm-10.33,0H87.31V17.47H91Zm-10.33,0H77V17.47h3.64Zm-10.32,0H66.65V17.47H70.3Zm-10.33,0H56.33V17.47H60Zm-10.33,0H46V17.47h3.64Zm-10.33,0H35.67V17.47h3.64Zm-10.33,0H25.34V17.47H29Zm-10.32,0H15V17.47h3.65Z"/></clipPath><linearGradient id="New_Gradient_Swatch" x1="8.45" y1="21.26" x2="8.47" y2="21.26" gradientUnits="userSpaceOnUse"><stop offset="0" stop-color="#4a00c9"/><stop offset="0.03" stop-color="#4a00c9"/><stop offset="0.48" stop-color="aqua"/><stop offset="1" stop-color="#f1f900"/></linearGradient><linearGradient id="New_Gradient_Swatch-2" x1="8.47" y1="234.92" x2="1536.84" y2="234.92" xlink:href="#New_Gradient_Swatch"/></defs><g class="cls-2"><path class="cls-3" d="M8.45,21.25h0Z"/><path class="cls-4" d="M1536.84,163c-19.74-5.76-38.09-15.36-53.73-31.71-62.69-65.53-132.66-89.51-207.76-89.51-102.42,0-214.34,44.59-330.23,89.17s-235.74,89.16-354,89.16h0a430.73,430.73,0,0,1-67.59-5.19A485,485,0,0,1,455.35,199h0l0,0C294.86,149.1,207.21,32.34,8.47,21.26l.18,414.4.1,12.92H1536.84Z"/></g></svg>